<svg width="64" height="64" viewBox="0 0 64 64" fill="none" xmlns="http://www.w3.org/2000/svg">
<path d="M11.3863 53.0672C11.3863 53.0672 34.4596 52.458 28.1752 42.715C21.003 31.5957 9.44842 32.1993 11.3863 53.0672Z" stroke="black" stroke-width="2" stroke-linecap="round" stroke-linejoin="round"/>
<path d="M11.3905 53.0323C15.3619 44.537 17.4352 38.6468 24.2525 38.1538" stroke="black" stroke-width="2" stroke-linecap="round" stroke-linejoin="round"/>
<path d="M50.8295 50.669C50.8295 50.669 28.8135 45.5492 36.7098 37.227C45.7215 27.7291 56.6894 30.5858 50.8295 50.669Z" stroke="black" stroke-width="2" stroke-linecap="round" stroke-linejoin="round"/>
<path d="M50.8322 50.634C48.6514 41.525 47.792 35.3427 41.3471 33.5231" stroke="black" stroke-width="2" stroke-linecap="round" stroke-linejoin="round"/>
<path d="M25.2392 30.0746C25.2392 30.0746 47.4099 23.6552 38.8677 15.8163C29.1187 6.86995 18.0916 10.3735 25.2392 30.0746Z" stroke="black" stroke-width="2" stroke-linecap="round" stroke-linejoin="round"/>
<path d="M25.2345 30.0397C26.9305 20.8166 27.4483 14.5937 33.9198 12.3942" stroke="black" stroke-width="2" stroke-linecap="round" stroke-linejoin="round"/>
</svg>
