<svg width="64" height="64" viewBox="0 0 64 64" fill="none" xmlns="http://www.w3.org/2000/svg">
<path d="M36.8777 24.0414C37.8557 23.538 38.8834 22.7842 39.9127 21.677C41.3306 20.152 42.2736 18.6664 42.7154 17.2614C43.2226 15.6487 42.8081 13.9708 41.6064 12.7726C40.4096 11.5791 38.667 11.155 37.0584 11.666C36.8202 11.7416 36.5799 11.8328 36.3391 11.9371C36.2558 11.7191 36.1663 11.5092 36.069 11.3094C35.3283 9.78986 33.8734 8.85662 32.1773 8.81305C30.4882 8.77039 28.9307 9.65997 28.1143 11.1369C27.9704 11.3973 27.84 11.6736 27.722 11.9638C27.4608 11.848 27.2001 11.7478 26.9418 11.6658C25.3333 11.1551 23.5907 11.5791 22.3939 12.7725C21.1923 13.9707 20.7778 15.6487 21.2849 17.2613C21.7266 18.6662 22.6697 20.1518 24.0876 21.6769C25.117 22.7841 26.1447 23.5378 27.1225 24.0413C22.2477 25.9856 18.7939 30.7537 18.7939 36.3136C18.7939 40.1991 20.9406 44.5377 25.1743 49.2091C28.2697 52.6244 31.3196 54.9097 31.4479 55.0054C31.6116 55.1274 31.8058 55.1883 31.9999 55.1883C32.1941 55.1883 32.3881 55.1274 32.552 55.0054C32.6804 54.9097 35.7302 52.6244 38.8256 49.2091C43.0593 44.5379 45.206 40.1991 45.206 36.3136C45.2064 30.7537 41.7525 25.9856 36.8777 24.0414ZM37.0707 16.4429C37.0616 15.4619 36.9812 14.5609 36.8321 13.7426C37.0976 13.6145 37.3605 13.5089 37.6181 13.4271C38.5814 13.121 39.5846 13.3658 40.3021 14.0811C41.0061 14.7831 41.2495 15.7648 40.9531 16.7072C40.5943 17.848 39.7891 19.0967 38.5598 20.4189C37.3232 21.7488 36.117 22.4576 35.0483 22.8077C36.1336 21.5204 37.0988 19.5112 37.0707 16.4429ZM29.7314 12.0308C30.2084 11.168 31.0736 10.6592 32.0562 10.6592C32.0806 10.6592 32.1052 10.6595 32.1298 10.6602C33.1237 10.6857 33.9755 11.2312 34.4082 12.1192C34.9323 13.1942 35.2064 14.6546 35.2228 16.4598C35.2525 19.6893 34.0022 21.4284 32.9209 22.327L32.9316 13.8654C32.9323 13.3553 32.5192 12.941 32.009 12.9404C32.0086 12.9404 32.0082 12.9404 32.0078 12.9404C31.4981 12.9404 31.0846 13.3533 31.084 13.8631L31.0732 22.3867C30.0117 21.5982 28.8061 20.0134 28.7773 16.8775C28.7584 14.8406 29.0795 13.21 29.7314 12.0308ZM25.441 20.4189C24.2116 19.0967 23.4064 17.8479 23.0477 16.7072C22.7513 15.7649 22.9947 14.7831 23.6987 14.0811C24.4162 13.3656 25.4194 13.121 26.3825 13.427C26.6489 13.5117 26.9212 13.6222 27.1965 13.7564C27.0092 14.6986 26.9193 15.7461 26.9298 16.8946C26.9557 19.7064 27.7976 21.5519 28.7947 22.7541C27.7656 22.3868 26.6169 21.6836 25.441 20.4189ZM32.9082 43.0224H41.1918C38.3712 47.7583 33.6121 51.7985 32.0003 53.0915C30.7987 52.1275 27.8501 49.6381 25.2583 46.4726H32.3634C32.8736 46.4726 33.2872 46.0589 33.2872 45.5487C33.2872 45.0386 32.8736 44.6249 32.3634 44.6249H23.8507C22.0262 42.0305 20.6419 39.1333 20.6419 36.3137C20.6419 35.3063 20.7744 34.3294 21.0217 33.3987H26.0989C26.6092 33.3987 27.0227 32.985 27.0227 32.4748C27.0227 31.9647 26.6092 31.551 26.0989 31.551H21.69C23.4944 27.6604 27.4371 24.9552 32.0003 24.9552C38.2633 24.9552 43.3586 30.0506 43.3586 36.3136C43.3586 37.9324 42.9014 39.5768 42.1675 41.1747H32.9082C32.398 41.1747 31.9843 41.5884 31.9843 42.0986C31.9843 42.6087 32.398 43.0224 32.9082 43.0224Z" fill="black" stroke="black" stroke-width="0.000463768"/>
<path d="M30.0028 31.5511H29.4582C28.9479 31.5511 28.5343 31.9648 28.5343 32.4749C28.5343 32.9851 28.9479 33.3987 29.4582 33.3987H30.0028C30.513 33.3987 30.9266 32.9851 30.9266 32.4749C30.9266 31.9648 30.513 31.5511 30.0028 31.5511Z" fill="black" stroke="black" stroke-width="0.000463768"/>
</svg>
