<svg width="64" height="64" viewBox="0 0 64 64" fill="none" xmlns="http://www.w3.org/2000/svg">
<path d="M46.5267 30.559C46.2703 26.8914 45.5286 24.3099 45.4971 24.2018C45.4242 23.9508 45.2494 23.7415 45.0155 23.6248C44.7815 23.508 44.5095 23.4944 44.2649 23.587C44.203 23.6105 42.9801 24.0786 41.2372 25.0643C40.8163 21.5432 40.0634 18.3113 39.0189 15.6222C37.2278 11.0105 34.735 8.47058 32 8.47058C29.6301 8.47058 27.4689 10.3326 25.7498 13.8554C24.3369 16.7509 23.2904 20.693 22.7644 25.0648C21.0277 24.0822 19.8059 23.6139 19.7351 23.587C19.4906 23.4944 19.2185 23.5081 18.9845 23.6248C18.7505 23.7415 18.5759 23.9507 18.5028 24.2018C18.4714 24.3099 17.7298 26.8912 17.4733 30.559C17.2354 33.9621 17.3942 38.9753 19.5018 43.5321C23.1471 51.4131 27.426 54.2573 30.3736 55.2554C30.9111 55.4374 31.4343 55.5282 31.9318 55.5282L32.0678 55.5294C32.5655 55.5294 33.0878 55.4378 33.6263 55.2554C36.5739 54.2573 40.8528 51.413 44.4981 43.5321C46.6058 38.9754 46.7645 33.9622 46.5267 30.559ZM33.8748 51.8552C33.7276 52.3087 33.5426 52.6778 33.322 52.9609L26.7467 38.4524C26.533 37.9808 25.9773 37.7718 25.5059 37.9856C25.0344 38.1993 24.8253 38.7548 25.0391 39.2264L31.5652 53.6263C31.3781 53.5982 31.1815 53.5496 30.9751 53.4797C28.3751 52.5993 24.5695 50.0221 21.2035 42.7449C18.1936 36.2377 19.4465 28.5278 20.0494 25.7699C22.4807 26.9179 28.8111 30.4153 31.7917 36.8596C35.1676 44.1579 34.7879 49.0426 33.8748 51.8552ZM34.7176 39.0307C34.8831 38.8617 34.9854 38.6305 34.9854 38.3754C34.9854 37.8736 34.591 37.4653 34.0956 37.4403C33.9085 36.9929 33.7084 36.5372 33.4935 36.0725C33.0974 35.2162 32.6481 34.4096 32.1619 33.6523C32.2447 33.5126 32.2929 33.3502 32.2929 33.1761C32.2929 32.6584 31.8733 32.2387 31.3555 32.2387H31.1721C30.0258 30.7301 28.7553 29.4517 27.5274 28.3963C27.5466 28.3215 27.558 28.2434 27.558 28.1626C27.558 27.6448 27.1383 27.2252 26.6206 27.2252H26.0699C25.7311 26.9706 25.4013 26.7339 25.0851 26.5162C24.8979 26.3873 24.7129 26.263 24.5304 26.1432C24.6026 25.4426 24.6884 24.7561 24.7866 24.0852C25.2937 24.0729 25.7011 23.6589 25.7011 23.1489C25.7011 22.7459 25.4465 22.4035 25.0897 22.2709C25.295 21.1811 25.534 20.1426 25.8021 19.1656H25.8778C26.3955 19.1656 26.8152 18.7459 26.8152 18.2282C26.8152 17.8773 26.6221 17.572 26.3366 17.4112C26.7222 16.2689 27.1503 15.2377 27.6107 14.3378H28.013C28.5308 14.3378 28.9505 13.9181 28.9505 13.4004C28.9505 13.1069 28.8154 12.8451 28.6043 12.6732C29.6539 11.1874 30.8161 10.3454 32 10.3454C33.1543 10.3454 34.3242 11.1651 35.3957 12.6732C35.1846 12.845 35.0494 13.1068 35.0494 13.4003C35.0494 13.918 35.4691 14.3377 35.9869 14.3377H36.3958C36.7015 14.9323 36.9944 15.588 37.2713 16.3009C37.4104 16.6589 37.5437 17.028 37.6717 17.4061C37.3815 17.5654 37.1849 17.8737 37.1849 18.2281C37.1849 18.7459 37.6046 19.1655 38.1223 19.1655H38.2092C38.4795 20.1512 38.7159 21.1889 38.9176 22.2682C38.5571 22.3988 38.2991 22.7432 38.2991 23.1488C38.2991 23.6603 38.7089 24.0754 39.218 24.0853C39.3654 25.1039 39.4833 26.1527 39.5705 27.2249H39.2365C38.7187 27.2249 38.2991 27.6446 38.2991 28.1623C38.2991 28.68 38.7187 29.0997 39.2365 29.0997H39.6907C39.7321 29.9831 39.7531 30.8788 39.7531 31.7832C39.7531 31.9354 39.751 32.0867 39.7497 32.2384H39.6078C39.0901 32.2384 38.6704 32.6581 38.6704 33.1758C38.6704 33.6936 39.0901 34.1132 39.6078 34.1132H39.7048C39.6587 35.2459 39.5791 36.36 39.4669 37.4493C39.0162 37.5174 38.6704 37.9053 38.6704 38.3751C38.6704 38.7663 38.9101 39.1011 39.2505 39.2416C39.1095 40.2487 38.9387 41.2281 38.7403 42.1755C38.7219 42.1744 38.7035 42.1726 38.6846 42.1726H37.9419C37.4242 42.1726 37.0045 42.5923 37.0045 43.11C37.0045 43.6278 37.4242 44.0474 37.9419 44.0474H38.3002C38.2539 44.2237 38.2076 44.4002 38.1593 44.5737C37.6353 46.4515 36.9973 48.0971 36.2846 49.4352C36.5627 46.8186 36.2949 43.3661 34.7176 39.0307ZM42.7965 42.7448C41.2661 46.0536 39.6449 48.3904 38.0873 50.0381C38.8042 48.6364 39.4367 46.9714 39.9652 45.0778C41.0529 41.18 41.6279 36.5829 41.6279 31.7833C41.6279 30.1974 41.5646 28.6358 41.4418 27.1162C42.4495 26.5082 43.3282 26.0614 43.9513 25.7683C44.5562 28.5225 45.8129 36.2236 42.7965 42.7448Z" fill="black" stroke="black" stroke-width="0.000470588"/>
<path d="M32.5695 12.4628H31.4304C30.9127 12.4628 30.493 12.8824 30.493 13.4002C30.493 13.9179 30.9127 14.3376 31.4304 14.3376H32.5695C33.0872 14.3376 33.5069 13.9179 33.5069 13.4002C33.5069 12.8825 33.0872 12.4628 32.5695 12.4628Z" fill="black" stroke="black" stroke-width="0.000470588"/>
<path d="M30.3303 17.2907H29.2171C28.6994 17.2907 28.2797 17.7104 28.2797 18.2281C28.2797 18.7459 28.6994 19.1655 29.2171 19.1655H30.3303C30.8481 19.1655 31.2677 18.7459 31.2677 18.2281C31.2677 17.7104 30.8481 17.2907 30.3303 17.2907Z" fill="black" stroke="black" stroke-width="0.000470588"/>
<path d="M34.7829 17.2907H33.6697C33.1519 17.2907 32.7323 17.7104 32.7323 18.2281C32.7323 18.7459 33.1519 19.1655 33.6697 19.1655H34.7829C35.3007 19.1655 35.7203 18.7459 35.7203 18.2281C35.7204 17.7104 35.3007 17.2907 34.7829 17.2907Z" fill="black" stroke="black" stroke-width="0.000470588"/>
<path d="M36.3418 22.2114H35.377C34.8593 22.2114 34.4396 22.631 34.4396 23.1488C34.4396 23.6665 34.8593 24.0862 35.377 24.0862H36.3418C36.8596 24.0862 37.2792 23.6665 37.2792 23.1488C37.2792 22.631 36.8596 22.2114 36.3418 22.2114Z" fill="black" stroke="black" stroke-width="0.000470588"/>
<path d="M28.623 22.2114H27.6582C27.1404 22.2114 26.7208 22.631 26.7208 23.1488C26.7208 23.6665 27.1404 24.0862 27.6582 24.0862H28.623C29.1407 24.0862 29.5604 23.6665 29.5604 23.1488C29.5605 22.631 29.1407 22.2114 28.623 22.2114Z" fill="black" stroke="black" stroke-width="0.000470588"/>
<path d="M32.4824 22.2114H31.5176C30.9999 22.2114 30.5802 22.631 30.5802 23.1488C30.5802 23.6665 30.9999 24.0862 31.5176 24.0862H32.4824C33.0002 24.0862 33.4198 23.6665 33.4198 23.1488C33.4198 22.631 33.0002 22.2114 32.4824 22.2114Z" fill="black" stroke="black" stroke-width="0.000470588"/>
<path d="M35.7958 27.2249H34.6488C34.1311 27.2249 33.7114 27.6446 33.7114 28.1623C33.7114 28.6801 34.1311 29.0997 34.6488 29.0997H35.7958C36.3135 29.0997 36.7332 28.6801 36.7332 28.1623C36.7332 27.6446 36.3135 27.2249 35.7958 27.2249Z" fill="black" stroke="black" stroke-width="0.000470588"/>
<path d="M31.2081 27.2249H30.0612C29.5435 27.2249 29.1238 27.6446 29.1238 28.1623C29.1238 28.6801 29.5435 29.0997 30.0612 29.0997H31.2081C31.7258 29.0997 32.1455 28.6801 32.1455 28.1623C32.1455 27.6446 31.7258 27.2249 31.2081 27.2249Z" fill="black" stroke="black" stroke-width="0.000470588"/>
<path d="M36.071 32.2385H34.8922C34.3744 32.2385 33.9548 32.6582 33.9548 33.1759C33.9548 33.6937 34.3744 34.1133 34.8922 34.1133H36.071C36.5888 34.1133 37.0084 33.6937 37.0084 33.1759C37.0084 32.6582 36.5888 32.2385 36.071 32.2385Z" fill="black" stroke="black" stroke-width="0.000470588"/>
<path d="M37.225 37.4377H36.4307C35.913 37.4377 35.4933 37.8574 35.4933 38.3752C35.4933 38.8929 35.913 39.3126 36.4307 39.3126H37.225C37.7427 39.3126 38.1624 38.8929 38.1624 38.3752C38.1625 37.8574 37.7427 37.4377 37.225 37.4377Z" fill="black" stroke="black" stroke-width="0.000470588"/>
<path d="M25.4004 35.4814L25.1479 34.9244C24.9342 34.4528 24.3786 34.2437 23.9071 34.4575C23.4355 34.6712 23.2264 35.2267 23.4402 35.6983L23.6927 36.2553C23.8495 36.6014 24.1904 36.806 24.5471 36.806C24.6764 36.806 24.8079 36.7791 24.9335 36.7222C25.405 36.5084 25.614 35.9529 25.4004 35.4814Z" fill="black" stroke="black" stroke-width="0.000470588"/>
</svg>
