<svg width="64" height="64" viewBox="0 0 64 64" fill="none" xmlns="http://www.w3.org/2000/svg">
<path d="M39.9731 37.3244C41.0273 39.0052 42.7003 39.9178 44.4838 39.9178C45.3131 39.9178 46.1665 39.7209 46.9948 39.3116L50.2079 38.1779L48.0655 35.5302C47.1713 34.1036 45.828 33.2521 44.3539 33.0203C45.4711 32.9475 46.5806 32.5256 47.5466 31.711L50.396 29.844L47.6824 27.7821C47.0646 27.1837 46.3644 26.7745 45.6321 26.5136C46.2431 26.0471 46.7756 25.4409 47.1819 24.6932L49.1507 21.9156L45.8756 20.9864C44.5915 20.4501 43.2822 20.4094 42.1106 20.7789C42.9428 20.1146 43.5877 19.1854 43.9359 18.0371L45.3072 14.9181L41.9099 14.6679C39.0527 14.1141 36.501 15.6475 35.6573 18.4309L34.5633 20.9224C33.8873 20.1427 33.1473 19.4221 32.3521 18.7636L34.9823 17.367C37.6949 16.3205 39.0391 13.6573 38.27 10.8525L37.7696 7.48331L34.7611 9.08064C32.0485 10.1281 30.7043 12.7913 31.4734 15.5961L31.8865 18.3795C30.9836 17.6812 30.0099 17.0712 28.9818 16.5494L30.2679 14.2111C31.9651 11.8495 31.6315 8.8857 29.4532 6.95959L27.1876 4.41278L25.5457 7.39602C23.8494 9.75759 24.1831 12.7224 26.3623 14.6495L27.4349 15.854C27.1983 15.7609 26.9675 15.6591 26.726 15.5757C26.309 15.4321 25.8735 15.598 25.6301 15.9413L23.8669 13.9143C22.2337 11.5101 19.3367 10.8011 16.7773 12.1822L13.6079 13.4304L15.8434 15.9995C16.9189 17.5842 18.5424 18.4319 20.2571 18.4319C20.5442 18.4319 20.8342 18.3989 21.1242 18.3504C19.7528 18.8819 18.6297 19.9749 18.0469 21.5296L16.4786 24.5545L19.8527 25.021C20.3619 25.1548 20.8672 25.2198 21.3579 25.2198C22.2346 25.2198 23.0619 25.0055 23.798 24.6166C23.5313 25.4157 23.4285 26.2925 23.5633 27.2216L23.6467 30.6267L26.8278 29.4105C27.0916 29.3446 27.3341 29.2485 27.5765 29.1525C27.498 29.4134 27.4223 29.6772 27.3787 29.9585L26.4573 33.2375L29.8557 33.0096C29.8983 33.0115 29.9381 33.0038 29.9818 33.0047C29.4386 33.4877 28.9702 34.0842 28.624 34.8067L26.7929 37.6784L30.1127 38.4436C30.5016 38.5843 30.8886 38.6696 31.2746 38.7259C29.8537 38.8451 28.5018 39.5357 27.5009 40.7984L25.0811 43.1959L28.1478 44.6758C29.105 45.2888 30.1369 45.5865 31.1475 45.5865C32.7225 45.5865 34.2452 44.8621 35.346 43.4742L35.4798 43.3413C32.452 50.6559 25.9336 56.0259 17.3408 57.6669C16.8142 57.7678 16.4699 58.276 16.5698 58.8016C16.659 59.2662 17.0654 59.5901 17.5212 59.5901C17.5823 59.5901 17.6424 59.5843 17.7035 59.5727C26.4418 57.9045 33.189 52.6548 36.6717 45.443L36.5379 48.2963C36.0569 51.1641 37.6629 53.6779 40.4677 54.4461L43.6207 55.7311L43.7797 52.3299C44.2608 49.4611 42.6547 46.9472 39.8499 46.1801L36.9045 44.9775C37.435 43.8185 37.8676 42.6043 38.2264 41.3541L38.6366 42.8031C39.0886 45.6748 41.4046 47.5592 44.3112 47.3914L47.7105 47.6125L46.7833 44.3354C46.3314 41.4618 43.9931 39.5783 41.1088 39.7471L38.6677 39.589C38.8946 38.5241 39.0643 37.435 39.1633 36.3206L39.9731 37.3244ZM35.5021 10.8719L36.2528 10.4821L36.3585 11.1959L36.3847 11.319C36.9171 13.1831 36.0539 14.8929 34.2384 15.5718L33.4877 15.9617L33.382 15.2488L33.3558 15.1257C32.8234 13.2616 33.6866 11.5518 35.5021 10.8719ZM27.1469 8.49097L27.563 7.75195L28.043 8.29216L28.1332 8.38041C29.5987 9.64994 29.812 11.5528 28.6657 13.1142L28.2496 13.8532L27.7705 13.314L27.6803 13.2258C26.2149 11.9562 26.0005 10.0534 27.1469 8.49097ZM38.4592 48.5737L38.5067 47.7279L39.1739 47.9995L39.2942 48.0393C41.1689 48.5319 42.1999 50.1458 41.8594 52.0544L41.8119 52.9001L41.1437 52.6286L41.0254 52.5888C39.1497 52.0952 38.1187 50.4823 38.4592 48.5737ZM41.1059 41.6916L41.1689 41.6878C43.094 41.552 44.5915 42.7653 44.8727 44.6826L45.0948 45.5002L44.3122 45.4498L44.2491 45.4537C42.3269 45.5972 40.8266 44.3771 40.5453 42.4588L40.3232 41.6412L41.1059 41.6916ZM39.2661 34.1695C39.27 33.8912 39.2923 33.6187 39.2884 33.3374C39.2738 32.3879 39.1856 31.453 39.0382 30.5346L40.2534 31.4578C41.1068 32.2842 42.1087 32.7797 43.1474 32.9611C42.4472 33.0154 41.7363 33.1987 41.0438 33.542L39.2661 34.1695ZM37.9112 26.4408L40.297 27.1168C40.4454 27.1789 40.5948 27.2303 40.7441 27.2798C40.6268 27.3651 40.5026 27.434 40.3892 27.53L38.6444 28.6744C38.4446 27.9111 38.1992 27.1663 37.9112 26.4408ZM46.4468 36.599L46.9725 37.2633L46.2926 37.5029L46.1772 37.5533C44.4479 38.4281 42.6052 37.9083 41.5927 36.2557L41.0661 35.5913L41.746 35.3518L41.8614 35.3013C43.5916 34.4256 45.4333 34.9464 46.4468 36.599ZM47.0345 29.7257L46.4323 30.1214L46.3314 30.1971C44.8601 31.4637 42.9486 31.3958 41.5704 30.0322L40.9022 29.5133L41.5045 29.1186L41.6053 29.0429C43.0756 27.7763 44.9891 27.8442 46.3663 29.2068L47.0345 29.7257ZM45.1676 22.7923L45.9803 23.0309L45.5633 23.6186L45.4973 23.7253C44.5895 25.439 42.7837 26.0742 41.0031 25.3081L40.1923 25.0705L40.6093 24.4827L40.6753 24.376C41.5811 22.6614 43.3869 22.0232 45.1676 22.7923ZM37.4563 19.1534L37.499 19.0351C38.0421 17.175 39.6783 16.1838 41.5811 16.5795L42.4249 16.6493L42.1349 17.3098L42.0912 17.4281C41.5481 19.2892 39.9042 20.2765 38.0101 19.8837L37.1654 19.8139L37.4563 19.1534ZM37.6833 21.7972C38.0741 21.8729 38.4601 21.9107 38.8364 21.9107C39.4048 21.9107 39.9498 21.8215 40.4629 21.6595C39.8858 22.1173 39.3795 22.6953 38.9916 23.4101L37.5068 25.503C36.8676 24.1084 36.0714 22.801 35.1316 21.6091L37.6833 21.7972ZM35.1966 25.215L33.0436 25.3595C32.2114 25.3178 31.4375 25.4584 30.7314 25.7241C30.9409 24.987 31.0137 24.1898 30.8924 23.35L30.81 20.0001C32.6052 21.4141 34.0929 23.1938 35.1966 25.215ZM17.4232 14.8725L16.8743 14.2276L17.5454 13.9638L17.6589 13.9095C19.3542 12.9697 21.2144 13.4265 22.286 15.0403L22.835 15.6853L22.1638 15.9491L22.0504 16.0034C20.3551 16.9422 18.4949 16.4864 17.4232 14.8725ZM22.9329 17.7316L25.4856 16.7249C25.5631 17.0304 25.7717 17.2972 26.0917 17.4087C27.8035 18.0022 29.3717 18.8751 30.7634 19.9623L27.627 21.161C27.1576 21.2784 26.7337 21.4607 26.3322 21.6702L26.3332 21.6682L27.9014 18.6452L24.5274 18.1778C23.735 17.9693 22.9611 17.945 22.2269 18.0546C22.4645 17.9634 22.7002 17.8577 22.9329 17.7316ZM20.3017 23.1346L19.4638 23.0095L19.7965 22.3694L19.8479 22.254C20.5083 20.4317 22.2094 19.5511 24.0783 20.0651L24.9163 20.1902L24.5836 20.8293L24.5322 20.9457C23.8708 22.7671 22.1687 23.6458 20.3017 23.1346ZM26.3119 27.5406L25.5176 27.8355L25.5001 27.1149L25.4885 26.9888C25.1898 25.0734 26.2566 23.4838 28.141 23.0328L28.9353 22.738L28.9528 23.4586L28.9644 23.5847C29.2641 25.5001 28.1972 27.0897 26.3119 27.5406ZM29.8499 31.066L29.0672 31.1184L29.2621 30.425L29.2873 30.3008C29.5521 28.4717 30.9157 27.2904 32.7187 27.2904C32.8069 27.2904 32.8961 27.2933 32.9854 27.2992L33.0484 27.303L33.8311 27.2507L33.6361 27.9451L33.6109 28.0692C33.3335 29.9876 31.8681 31.1989 29.9129 31.0709L29.8499 31.066ZM35.5205 28.4106L35.9715 26.8055C36.7173 28.5774 37.1712 30.4958 37.3012 32.4878L35.376 32.0436C34.8252 31.8448 34.2762 31.7536 33.736 31.7207C34.6622 30.9167 35.3081 29.7829 35.5205 28.4106ZM29.9042 36.406L30.2911 35.7979L30.3522 35.6873C31.1727 33.931 32.9446 33.2065 34.7602 33.8834L35.5845 34.0822L35.1976 34.6903L35.1365 34.7999C34.316 36.5573 32.5412 37.2847 30.7276 36.6038L29.9042 36.406ZM33.9358 42.1387L33.8524 42.2338C32.6624 43.7652 30.7751 44.0813 29.1535 43.0184L28.3941 42.6431L28.9072 42.1358L28.9906 42.0408C30.1796 40.5094 32.0669 40.1932 33.6895 41.2562L34.4489 41.6315L33.9358 42.1387ZM34.6981 39.5977C33.994 39.1468 33.2482 38.8859 32.5014 38.7685C34.3451 38.6211 35.9802 37.5271 36.8667 35.6805L37.307 34.99C37.2216 36.8841 36.9375 38.7103 36.4661 40.4512L34.6981 39.5977Z" fill="black"/>
</svg>
