<svg width="64" height="64" viewBox="0 0 64 64" fill="none" xmlns="http://www.w3.org/2000/svg">
<path d="M47.9604 16.5348C46.762 15.1628 45.2967 14.026 43.6091 13.2345C41.9228 12.4424 40.0157 11.9988 37.9635 12C37.5877 12 37.205 12.0137 36.8173 12.0448H36.8192C33.9831 12.27 31.514 13.5493 29.4431 14.9867C27.4252 16.3917 25.7508 17.9784 24.5194 19.0182C21.4288 20.6584 18.5919 22.4785 16.401 24.8629C15.2915 26.0731 14.3526 27.4315 13.6582 28.9678C12.9631 30.5028 12.5158 32.2116 12.3658 34.1006C12.3248 34.6127 12.3042 35.1167 12.3042 35.6127C12.3036 38.1882 12.8517 40.529 13.8237 42.5681C15.2823 45.6308 17.6798 47.9984 20.5159 49.5858C23.3545 51.175 26.6363 51.9988 29.9459 52C34.6339 52.0006 38.89 50.0916 41.9551 47.014C44.7216 44.6059 47.0948 41.0772 48.8352 37.4109C49.7107 35.5598 50.4207 33.6745 50.9153 31.873C51.41 30.071 51.6944 28.3567 51.6956 26.8136C51.6945 22.9558 50.3554 19.2808 47.9604 16.5348ZM48.3332 31.1631C47.6606 33.6104 46.5181 36.3259 45.0826 38.803C43.6509 41.282 41.9192 43.5258 40.1352 45.0515L40.0967 45.0845L40.0588 45.123C37.4702 47.7178 33.9017 49.3207 29.9461 49.3213C26.1262 49.3238 22.3442 48.0358 19.5714 45.693C18.1827 44.5227 17.0414 43.0927 16.2424 41.4158C15.4448 39.7389 14.9837 37.8117 14.9831 35.6128C14.9831 35.1897 14.9998 34.7566 15.0353 34.3142C15.1642 32.7132 15.5338 31.3225 16.0987 30.0718C16.9474 28.197 18.2479 26.6177 19.923 25.1898C21.5969 23.7648 23.6414 22.506 25.9064 21.3138L26.0327 21.2466L26.1429 21.1546C27.4845 20.0252 29.1078 18.4814 30.9727 17.1866C32.8345 15.8886 34.8959 14.8768 37.0272 14.7156H37.0291C37.3452 14.6902 37.6569 14.6783 37.9637 14.6783C39.6331 14.6795 41.1359 15.0336 42.4718 15.6595C44.4717 16.5979 46.1019 18.1591 47.2419 20.1086C48.3799 22.0562 49.0177 24.3864 49.0171 26.8138C49.0182 28.0214 48.7818 29.5341 48.3332 31.1631Z" fill="black" stroke="black" stroke-width="0.0004"/>
<path d="M27.4688 42.277C26.5367 42.277 25.7807 43.0324 25.7807 43.9645C25.7807 44.8978 26.5367 45.6532 27.4688 45.6532C28.4009 45.6532 29.1569 44.8978 29.1569 43.9645C29.1569 43.0324 28.401 42.277 27.4688 42.277Z" fill="black" stroke="black" stroke-width="0.0004"/>
<path d="M37.2902 35.5798C36.3581 35.5798 35.6021 36.3358 35.6021 37.2679C35.6021 38.2013 36.3581 38.9566 37.2902 38.9566C38.2223 38.9566 38.9784 38.2013 38.9784 37.2679C38.9784 36.3358 38.2223 35.5798 37.2902 35.5798Z" fill="black" stroke="black" stroke-width="0.0004"/>
<path d="M32.4773 22.7305C31.5458 22.7305 30.7898 23.4865 30.7898 24.4186C30.7898 25.352 31.5458 26.1073 32.4773 26.1073C33.4101 26.1073 34.166 25.352 34.166 24.4186C34.166 23.4865 33.41 22.7305 32.4773 22.7305Z" fill="black" stroke="black" stroke-width="0.0004"/>
<path d="M42.2987 24.5158C41.3666 24.5158 40.6112 25.2724 40.6112 26.2039C40.6112 27.1372 41.3666 27.8927 42.2987 27.8927C43.2315 27.8927 43.9874 27.1372 43.9874 26.2039C43.9874 25.2724 43.2315 24.5158 42.2987 24.5158Z" fill="black" stroke="black" stroke-width="0.0004"/>
<path d="M24.3434 31.5619C23.4113 31.5619 22.6552 32.318 22.6552 33.2501C22.6552 34.1827 23.4113 34.9382 24.3434 34.9382C25.2762 34.9382 26.0321 34.1827 26.0321 33.2501C26.0321 32.318 25.2761 31.5619 24.3434 31.5619Z" fill="black" stroke="black" stroke-width="0.0004"/>
</svg>
