<svg width="64" height="64" viewBox="0 0 64 64" fill="none" xmlns="http://www.w3.org/2000/svg">
<path d="M31.9781 8.26565C30.8187 8.96565 29.9437 11.1313 29.4844 14.3688C29.2656 15.9657 29.3312 19.4657 29.5937 20.9313C30.0312 23.3157 30.95 26.3125 31.4531 27.0563C32 27.8657 33.0719 28.2594 33.9687 28.0188C34.9094 27.7563 35.5 26.925 36.1562 25C36.5062 23.9282 36.6156 23.3375 36.9219 20.6907C37.2719 17.6063 37.1844 15.7469 36.6156 13.6907C35.9594 11.3719 34.3625 8.68128 33.3125 8.17815C32.7875 7.93753 32.4812 7.9594 31.9781 8.26565ZM33.4875 11.3063C34.1 12.1813 34.5594 13.1875 34.8656 14.3469C35.0844 15.2219 35.1062 15.5282 35.1062 18.3282C35.1062 21.5 35.0187 22.5282 34.6031 23.8844C34.3187 24.825 33.6406 26.1813 33.5094 26.1375C33.2906 26.0719 32.5906 24.9125 32.2625 24.0594C31.5187 22.1344 31.1906 19.9688 31.1906 17.3219C31.1906 14.6969 31.5625 12.6407 32.3281 11.1313C32.7437 10.2344 32.7438 10.2344 33.4875 11.3063Z" fill="black"/>
<path d="M21.4125 9.88439C20.1219 10.3438 18.8531 11.6563 17.4094 13.975C15.025 17.8031 13.5156 23.2719 14.0625 26.1813C14.5 28.4563 16.0969 29.0688 18.0438 27.6906C18.9406 27.0563 19.2469 26.6844 20.4938 24.7813C22.2 22.1781 23.1844 20.0563 23.7531 17.8469C24.0156 16.8188 24.0594 16.5344 24.0375 14.8719C24.0156 12.9031 23.7531 10.9563 23.4031 10.4094C23.2063 10.1031 22.4406 9.73126 22.0469 9.73126C21.9156 9.73126 21.6313 9.79689 21.4125 9.88439ZM22.1344 13.1219C22.3969 14.1281 22.3969 15.7906 22.1344 16.8625C21.85 18.0875 21.2813 19.5313 20.275 21.5875C19.0063 24.2125 18.1531 25.2844 16.6219 26.1594C16.3594 26.3125 16.1625 26.3563 16.0969 26.2906C16.0531 26.2469 15.9656 25.7438 15.9438 25.2188C15.6594 21.1281 18.2188 14.7188 21.0844 12.4656C21.8063 11.9188 21.85 11.9188 22.1344 13.1219Z" fill="black"/>
<path d="M42.4562 18.175C41.275 18.3063 39.9844 18.6125 39.525 18.875C36.725 20.45 40.8812 24.5188 47.4219 26.6188C50.6375 27.6469 54.2031 28.0406 55.8875 27.5594C57.1781 27.1875 57.8125 26.5094 57.8125 25.5032C57.8125 24.3657 57.0906 23.4032 55.3844 22.2219C51.3812 19.5094 48.1219 18.2844 44.5781 18.1531C43.8344 18.0875 42.8719 18.1094 42.4562 18.175ZM47.0281 20.275C49.4125 20.9531 53.6562 22.9 54.6625 23.7969C55.1875 24.2781 55.9312 25.175 55.9312 25.35C55.9312 25.4375 54.6844 25.7219 54.0062 25.8094C53.6344 25.8313 52.825 25.8313 52.1687 25.7656C48.2094 25.3719 43.6375 23.4469 41.5375 21.325C41.1875 20.9531 40.8812 20.625 40.8812 20.5594C40.8812 20.45 41.6906 20.1656 42.4125 20.0125C42.675 19.9688 43.5937 19.9469 44.4469 19.9469C45.7375 19.9688 46.2187 20.0344 47.0281 20.275Z" fill="black"/>
<path d="M25.8094 23.1406C25.4375 23.3594 23.5344 25.3719 22.8562 26.2688C20.3844 29.5063 19.05 37.3156 20.3406 40.8156C20.6031 41.4938 21.0844 42.1063 21.5437 42.3469C21.9375 42.5438 22.7687 42.5438 23.2062 42.325C25.4375 41.275 27.8875 35.9813 28.7187 30.4031C28.9375 28.8719 28.9375 28.3906 28.675 26.75C28.3031 24.4531 27.9094 23.4906 27.2531 23.0969C26.8594 22.8781 26.2031 22.8781 25.8094 23.1406ZM26.5969 25.7875C26.9469 27.2094 26.9469 29.6156 26.5969 31.6281C26.1594 34.1438 25.175 36.8125 24.0375 38.5844C23.6 39.2844 22.5281 40.4438 22.3094 40.4438C22.1344 40.4438 21.7625 39.4594 21.6094 38.5406C21.4344 37.5563 21.5437 36.3094 21.9375 34.2094C22.725 30.1844 23.3375 28.3469 24.3 27.2094C24.7594 26.6625 26.2469 25.3063 26.3781 25.3063C26.4437 25.3063 26.5312 25.525 26.5969 25.7875Z" fill="black"/>
<path d="M7.52187 27.7344C6.34062 28.2813 5.96874 29.9219 6.31874 33.05C6.75624 36.7688 8.02499 40.225 10.1687 43.4625C11.7 45.7594 12.575 46.5032 13.7562 46.5032C15.2875 46.4813 16.0312 45.5844 16.2281 43.4844C16.4031 41.625 15.9437 39.175 14.7844 35.6313C13.9094 32.9844 12.8594 31.1032 11.4375 29.6813C9.84062 28.1063 8.35312 27.3407 7.52187 27.7344ZM9.20624 30.3594C9.57812 30.5782 10.1906 31.0813 10.5844 31.4313C11.175 32 11.3719 32.3063 11.8969 33.4219C13.7344 37.2938 14.675 41.275 14.3031 43.6813C14.2375 44.1188 14.15 44.5125 14.1281 44.5344C14.0406 44.6219 13.1875 43.9438 12.575 43.2875C10.3 40.8594 8.33124 36.0032 8.15624 32.3719C8.09062 31.0157 8.17812 29.9438 8.37499 29.9438C8.44062 29.9657 8.81249 30.1407 9.20624 30.3594Z" fill="black"/>
<path d="M39.7656 30.3375C36.0031 31.1469 31.8031 33.225 29.8562 35.2157C28.9594 36.1563 28.6312 36.7469 28.6312 37.4907C28.6094 39.3719 31.125 40.1594 35.1062 39.4813C38.8906 38.8469 41.975 37.6875 44.8625 35.8282C46.1312 34.9969 46.8312 34.3625 47.4219 33.4438C47.9687 32.5907 48.1219 32.1094 47.9469 31.6282C47.75 31.0375 47.3562 30.8407 45.6062 30.4907C43.2437 30.0094 41.4937 29.9657 39.7656 30.3375ZM44.7094 32.1094C45.5406 32.4157 45.5625 32.4157 45.4312 32.7C44.9937 33.5094 43.2875 34.8 41.4719 35.675C38.9344 36.8782 35.3031 37.775 32.9406 37.775C32.175 37.775 30.5344 37.5344 30.4031 37.4032C30.2719 37.2719 32.1969 35.5657 33.1156 34.9969C34.6687 34.0344 38.4094 32.5469 40.5094 32.0438C41.6906 31.7375 43.7906 31.7813 44.7094 32.1094Z" fill="black"/>
<path d="M53.175 30.4031C52.3656 30.6219 51.5344 31.8031 50.9656 33.5969C50.7687 34.2094 50.4187 36.3531 50.0469 39.3938L49.8937 40.5531L50.3094 42.8938C51.1844 47.7938 51.5344 48.9969 52.4312 49.7188C53.4594 50.5938 55.0562 50.3969 55.8875 49.325C56.3469 48.7125 56.5875 48.0125 57.0469 45.9781C57.6812 43.1344 57.8125 42.2156 57.8125 39.9406C57.8344 37.6656 57.6812 36.7469 57.1344 35.1281C56.6969 33.8375 56.4562 33.3125 55.7562 32.1313C55.0125 30.8844 54.7937 30.6219 54.3562 30.425C53.9406 30.25 53.7875 30.25 53.175 30.4031ZM54.8594 34.8219C55.9312 37.4031 56.3031 41.1438 55.7562 44.0094C55.45 45.6281 54.7937 47.3781 54.2687 48.0563C54.0937 48.275 54.0937 48.2531 53.7656 47.9031C51.6 45.4313 51.2937 37.425 53.1969 33.3125L53.5687 32.4813L54.05 33.2469C54.3125 33.6625 54.6844 34.3844 54.8594 34.8219Z" fill="black"/>
<path d="M46.2406 37.9281C45.9344 37.9938 43.7687 39.2188 43.0031 39.7438C41.9094 40.4875 41.3187 41.1 40.3344 42.6313C38.6281 45.2125 37.0531 48.6906 36.5062 51.075C35.9375 53.6125 36.3312 55.4063 37.5781 55.8875C39.3062 56.5438 41.8875 54.5531 44.5344 50.5281C46.8531 46.9844 48.3844 42.5875 48.1219 40.2031C47.9469 38.5844 47.2031 37.6875 46.2406 37.9281ZM46.1094 41.2094C46.0656 43.8125 44.5125 47.5094 42.1719 50.5719C41.3406 51.6656 39.6781 53.3281 38.8906 53.8531C38.3875 54.1813 38.3437 54.1813 38.2344 54.0063C38.0375 53.6563 38.0375 52.0375 38.2125 51.2938C38.3875 50.5938 39.8094 47.225 40.575 45.65C41.4719 43.8125 42.6969 42.2375 43.9437 41.3406C44.5562 40.8813 45.8687 40.225 46.0219 40.2688C46.0875 40.2906 46.1312 40.6844 46.1094 41.2094Z" fill="black"/>
<path d="M26.9906 45.2125C22.4844 45.9344 17.8031 48.0781 16.7094 49.9156C16.1187 50.9219 16.25 51.8625 17.0594 52.5625C17.6719 53.0875 18.3719 53.3281 20.3406 53.6344L21.7844 53.875L24.8687 53.3719C26.575 53.0875 28.3687 52.7594 28.8719 52.65C30.7094 52.2344 32.7 51.0312 34.5812 49.2594C35.8719 48.0344 36.1781 47.3125 35.675 46.525C35.3906 46.0656 34.8219 45.6938 33.7719 45.3438C32.9406 45.0594 32.7875 45.0375 30.5781 45.0156C28.7625 45.0156 28.0406 45.0594 26.9906 45.2125ZM32.6781 47.0938C33.6187 47.3781 33.6187 47.3781 32.8094 48.1438C31.9125 48.975 31.125 49.5 29.8562 50.1344C26.2031 51.95 21.5 52.4094 18.6562 51.2063L18.2406 51.0312L18.6125 50.6375C19.9469 49.2594 23.1187 47.8156 26.2906 47.1812C28.5437 46.7437 31.3437 46.7 32.6781 47.0938Z" fill="black"/>
</svg>
