<svg width="64" height="64" viewBox="0 0 64 64" fill="none" xmlns="http://www.w3.org/2000/svg">
<path d="M50.019 57.3968C50.5572 57.3968 50.9935 56.9605 50.9935 56.4223C50.9935 55.8841 50.5572 55.4478 50.019 55.4478H38.5763L40.7739 50.3199C40.8831 50.3306 40.9928 50.3377 41.1033 50.3377C41.238 50.3377 41.3736 50.3297 41.5093 50.3135C42.1224 50.2404 42.6915 50.006 43.1698 49.6374L47.9087 46.1978C48.6333 45.672 49.1071 44.8888 49.2428 43.9926C49.3671 43.1722 49.1829 42.3256 48.7376 41.6333L50.408 40.3837C51.8426 39.31 52.1838 37.3106 51.2257 35.8274L52.8958 34.578C53.6194 34.0365 54.0892 33.2433 54.2187 32.3443C54.317 31.6614 54.2093 30.9819 53.9149 30.3775L56.7931 23.6609C57.0051 23.1662 56.7759 22.5933 56.2811 22.3813C55.7863 22.1694 55.2135 22.3985 55.0016 22.8933L52.4452 28.859C52.1068 28.6817 51.7365 28.5611 51.3462 28.5049C50.9252 28.4443 50.5054 28.4628 50.1033 28.5544L53.9325 19.6118C54.1444 19.1169 53.915 18.5442 53.4203 18.3323C52.9257 18.1205 52.3529 18.3499 52.1409 18.8446L48.3103 27.7902C48.099 27.4338 47.8217 27.1152 47.4854 26.8506C47.1756 26.6068 46.8332 26.4219 46.4714 26.2992L49.0278 20.3334C49.2398 19.8387 49.0105 19.2658 48.5158 19.0538C48.021 18.8419 47.4482 19.071 47.2363 19.5658L44.3582 26.2827C42.8389 26.7664 41.8236 28.2768 42.0191 29.9174L42.2663 31.9882C40.5315 32.3176 39.3191 33.9437 39.5313 35.7229L39.7785 37.794C38.0437 38.1234 36.8314 39.7494 37.0436 41.5286L37.7378 47.3459V47.3458C37.8429 48.2267 38.281 49.0165 38.972 49.5766L36.4558 55.4479H32.9785V41.0129C33.834 40.7704 34.5477 40.217 34.9911 39.449L37.9204 34.3753C38.3722 33.5926 38.4916 32.6784 38.2565 31.8011C38.042 31.0004 37.5557 30.3215 36.8777 29.8654L37.9208 28.0588C38.8165 26.5071 38.3426 24.535 36.8779 23.5489L37.9208 21.7427C38.7467 20.3118 38.4083 18.5238 37.2027 17.4809V10.1729C37.2027 9.63468 36.7663 9.19834 36.2282 9.19834C35.69 9.19834 35.2537 9.63468 35.2537 10.1729V16.6635C34.8727 16.6338 34.4851 16.6688 34.1042 16.7708C33.6921 16.8812 33.3125 17.0643 32.9785 17.3076V7.57809C32.9785 7.03992 32.5422 6.60358 32.004 6.60358C31.4658 6.60358 31.0295 7.03992 31.0295 7.57809V17.3079C30.3732 16.8292 29.5625 16.6001 28.7543 16.6639V10.1729C28.7543 9.63468 28.3179 9.19834 27.7797 9.19834C27.2416 9.19834 26.8052 9.63468 26.8052 10.1729V17.4809C25.5998 18.5241 25.2615 20.3119 26.0874 21.7425L27.1302 23.5487C25.6654 24.5348 25.1916 26.5068 26.0874 28.0587L27.1304 29.8652C26.4484 30.3262 25.9458 31.0318 25.7368 31.8348C25.5085 32.7119 25.6354 33.6184 26.0943 34.3873L29.0913 39.4083C29.3859 39.9388 29.8183 40.3808 30.3554 40.6909C30.5711 40.8155 30.7971 40.9132 31.0293 40.9869V55.4479H27.5443L25.0276 49.577C25.7188 49.017 26.1569 48.227 26.2622 47.3461L26.9564 41.5286C27.1685 39.7495 25.9563 38.1234 24.2214 37.794L24.4686 35.7229C24.6808 33.9437 23.4686 32.3176 21.7337 31.9882L21.9809 29.9172C22.1765 28.2766 21.1611 26.7665 19.6419 26.2827L16.7637 19.5657C16.5518 19.071 15.979 18.8418 15.4842 19.0537C14.9895 19.2657 14.7602 19.8386 14.9722 20.3333L17.5286 26.2994C17.1668 26.422 16.8243 26.6069 16.5145 26.8506C16.1771 27.1161 15.899 27.4361 15.6872 27.7941L11.8593 18.8449C11.6476 18.35 11.0751 18.1205 10.5802 18.3322C10.0852 18.5439 9.85575 19.1166 10.0675 19.6114L13.8923 28.5532C13.4918 28.4627 13.0736 28.4444 12.6539 28.5049C12.2637 28.5611 11.8933 28.6817 11.5549 28.8592L8.99854 22.8932C8.78658 22.3985 8.21381 22.1694 7.719 22.3812C7.22432 22.5932 6.99506 23.1661 7.20702 23.6607L10.0854 30.3782C9.38822 31.8117 9.78156 33.5882 11.1042 34.578L12.7742 35.8274C11.8162 37.3105 12.1574 39.3099 13.592 40.3837L15.2624 41.6332C14.8171 42.3256 14.6329 43.1722 14.7573 43.9926C14.893 44.8888 15.3667 45.6718 16.0913 46.1977L20.8301 49.6371C21.3085 50.0059 21.8776 50.2403 22.4907 50.3133C22.6265 50.3295 22.7621 50.3376 22.8968 50.3376C23.0072 50.3376 23.1168 50.3305 23.2258 50.3199L25.424 55.4478H13.9814C13.4432 55.4478 13.0068 55.8841 13.0068 56.4223C13.0068 56.9605 13.4432 57.3968 13.9814 57.3968H50.019ZM32.0429 30.9817L32.004 31.049L31.9652 30.9817C31.7583 30.6233 31.4922 30.3122 31.1808 30.0568L33.731 25.6397C33.9226 25.3079 34.2343 25.0699 34.6089 24.9696C34.9834 24.8693 35.3724 24.9194 35.704 25.1111C36.3938 25.5094 36.631 26.3946 36.2329 27.0842L34.9614 29.2864C34.6757 29.2889 34.388 29.3273 34.1042 29.4033C33.2267 29.6385 32.4947 30.199 32.0429 30.9817ZM27.7755 27.0845C27.3773 26.3946 27.6146 25.5094 28.3042 25.1112C28.994 24.7131 29.8792 24.9503 30.2774 25.6399L30.8788 26.6817L29.3645 29.3045C29.2586 29.2936 29.1526 29.2875 29.0469 29.2865L27.7755 27.0845ZM34.6087 18.6534C34.983 18.5531 35.3721 18.6033 35.704 18.795C36.3937 19.1932 36.631 20.0784 36.2328 20.7681L34.9614 22.9702C34.6757 22.9727 34.388 23.0111 34.1042 23.0871C33.2268 23.3222 32.4948 23.8827 32.043 24.6653L32.0041 24.7326L31.9653 24.6652C31.7554 24.3017 31.4876 23.9922 31.1807 23.7407L33.7309 19.3235C33.9225 18.9918 34.2342 18.7538 34.6087 18.6534ZM30.2778 19.3243L30.8794 20.3643L29.3648 22.9877C29.2593 22.977 29.1533 22.9712 29.0469 22.9703L27.7754 20.7681C27.3771 20.0783 27.6144 19.1932 28.3042 18.795C28.994 18.3967 29.8791 18.6338 30.2778 19.3243ZM27.6232 32.3258C27.723 31.9424 27.9648 31.6234 28.304 31.4275C28.6361 31.2359 29.0249 31.1856 29.3995 31.286C29.774 31.3863 30.0856 31.6242 30.2773 31.9562L30.8788 32.9978L29.2347 35.8452L27.7682 33.3883C27.5789 33.0714 27.5273 32.694 27.6232 32.3258ZM30.8344 38.5254L30.8189 38.4995C30.7498 38.3843 30.6957 38.259 30.6598 38.1251C30.5594 37.7506 30.6096 37.3617 30.8012 37.0299L33.7307 31.9562C33.9223 31.6244 34.234 31.3864 34.6085 31.2861C34.7346 31.2523 34.8623 31.2355 34.989 31.2355C35.2384 31.2355 35.4838 31.3004 35.7039 31.4275C36.0357 31.6191 36.2737 31.9308 36.3741 32.3054C36.4745 32.6799 36.4242 33.0688 36.2327 33.4006L33.3034 38.4743C33.1118 38.8062 32.8001 39.0442 32.4256 39.1446C32.2872 39.1816 32.1468 39.1979 32.008 39.1943C32.0067 39.1943 32.0055 39.194 32.0043 39.194C32.003 39.194 32.0018 39.1941 32.0006 39.1943C31.7666 39.1869 31.5373 39.1225 31.3304 39.003C31.1259 38.885 30.9574 38.7211 30.8344 38.5254ZM22.5334 35.492L22.2321 38.017C21.165 38.484 20.3649 39.487 20.2173 40.7246L20.208 40.8018L20.1458 40.7553C19.8144 40.5074 19.4472 40.3263 19.0604 40.2143L19.6646 35.1499C19.759 34.359 20.4795 33.7926 21.2701 33.8866C22.0612 33.9808 22.6279 34.7011 22.5334 35.492ZM17.72 28.3823C18.0246 28.1425 18.4016 28.0352 18.7825 28.0809C19.5735 28.1752 20.1402 28.8953 20.0459 29.6862L19.7445 32.2113C18.6777 32.6782 17.8775 33.6812 17.7296 34.9187L17.7203 34.9959L17.6581 34.9494C17.322 34.6978 16.954 34.5188 16.5727 34.4084L17.177 29.344C17.2226 28.9636 17.4153 28.622 17.72 28.3823ZM11.981 30.9954C12.2105 30.6886 12.5482 30.4892 12.9319 30.434C13.3159 30.3787 13.6961 30.4747 13.9965 30.6994L14.9646 31.4363L14.6072 34.4316C14.506 34.4632 14.4062 34.4997 14.3082 34.5408L12.2722 33.0175C11.6344 32.5403 11.5038 31.6334 11.981 30.9954ZM14.4687 36.8011C14.946 36.1635 15.8528 36.0327 16.4906 36.5098L17.4538 37.2305L17.0949 40.2377C16.9932 40.2694 16.8934 40.3054 16.7959 40.3463L14.76 38.8232C14.1223 38.3459 13.9917 37.4388 14.4687 36.8011ZM16.6844 43.7009C16.6251 43.3093 16.7217 42.9208 16.9565 42.6069C17.186 42.3 17.5238 42.1006 17.9075 42.0454C18.2911 41.99 18.6716 42.0861 18.9785 42.3157L19.9416 43.0363L19.552 46.3011L17.2362 44.6204C16.9373 44.4035 16.7414 44.0769 16.6844 43.7009ZM22.0777 48.1343L22.0541 48.1172C21.9451 48.0383 21.8458 47.9444 21.76 47.8353C21.5203 47.5306 21.4132 47.1532 21.4587 46.7728L22.1529 40.9554C22.2402 40.2225 22.8654 39.6821 23.5862 39.6821C23.6429 39.6821 23.7004 39.6855 23.7582 39.6924C24.5491 39.7868 25.1159 40.5069 25.0215 41.2976L24.3273 47.115C24.2818 47.4955 24.0891 47.8371 23.7845 48.0768C23.6716 48.1656 23.5485 48.236 23.4192 48.2873C23.4179 48.2878 23.4167 48.2882 23.4156 48.2887C23.4148 48.289 23.4139 48.2895 23.4131 48.2899C23.195 48.3753 22.9591 48.4062 22.7219 48.378C22.4873 48.3502 22.2679 48.2659 22.0777 48.1343ZM45.2178 28.081C45.5979 28.0353 45.9756 28.1425 46.2803 28.3824C46.5849 28.6221 46.7777 28.9636 46.8231 29.3441L47.4273 34.4085C47.0405 34.5205 46.6733 34.7016 46.3419 34.9495L46.2798 34.996L46.2705 34.9188C46.1228 33.6814 45.3226 32.6784 44.2559 32.2115L43.9545 29.6865C43.8602 28.8955 44.4269 28.1752 45.2178 28.081ZM42.73 33.8866C42.8781 33.8689 43.0238 33.8744 43.1634 33.9002C43.1707 33.9018 43.1779 33.904 43.1854 33.9053C43.7805 34.0253 44.2596 34.5149 44.3354 35.1497L44.9397 40.2142C44.5528 40.3262 44.1857 40.5073 43.8544 40.7552L43.7922 40.8017L43.783 40.7246C43.6355 39.487 42.8353 38.4837 41.768 38.0169L41.4668 35.4921C41.3725 34.7011 41.9392 33.9808 42.73 33.8866ZM40.5862 48.2896C40.5856 48.2894 40.585 48.289 40.5843 48.2887C40.5838 48.2884 40.5832 48.2883 40.5827 48.2881C40.4528 48.2366 40.3293 48.166 40.216 48.0768C39.9114 47.8371 39.7186 47.4955 39.6732 47.115L38.979 41.2976C38.8847 40.5068 39.4514 39.7868 40.2421 39.6924C40.2999 39.6854 40.3573 39.6821 40.4142 39.6821C41.135 39.6821 41.7601 40.2226 41.8476 40.9556L42.5417 46.7731C42.5871 47.1535 42.48 47.5307 42.2403 47.8354C42.1546 47.9445 42.0552 48.0386 41.9461 48.1173L41.9226 48.1343C41.7325 48.2659 41.513 48.3502 41.2785 48.3782C41.0408 48.4065 40.8044 48.3754 40.5862 48.2896ZM47.3158 43.7008C47.2588 44.0769 47.0629 44.4035 46.764 44.6204L44.4483 46.3011L44.0588 43.0364L45.0219 42.3157C45.3289 42.0861 45.7091 41.99 46.0928 42.0454C46.4765 42.1007 46.8142 42.3002 47.0438 42.607C47.2786 42.9207 47.3752 43.3091 47.3158 43.7008ZM49.2404 38.8231L47.2044 40.3464C47.1068 40.3056 47.007 40.2695 46.9053 40.2378L46.5465 37.2306L47.5095 36.51C47.8164 36.2803 48.1964 36.1842 48.5804 36.2396C48.9641 36.295 49.3018 36.4942 49.5314 36.8011C50.0087 37.4389 49.8781 38.3459 49.2404 38.8231ZM52.2896 32.0664C52.2343 32.4501 52.0349 32.7879 51.7282 33.0174L49.6923 34.5406C49.5947 34.4998 49.4948 34.4637 49.393 34.432L49.0348 31.4297L49.9975 30.7042C50.3043 30.4747 50.6844 30.3788 51.0683 30.4339C51.452 30.4892 51.7897 30.6886 52.0193 30.9955C52.2489 31.3024 52.3449 31.6826 52.2896 32.0664Z" fill="black" stroke="black" stroke-width="0.06"/>
</svg>
