<svg width="64" height="64" viewBox="0 0 64 64" fill="none" xmlns="http://www.w3.org/2000/svg">
<path d="M31.5692 56.4361C31.2082 56.1596 31.1698 55.407 31.4617 54.5315C31.9609 53.0801 32.4677 50.4997 32.6904 48.334C32.9592 45.6154 32.7288 42.2977 32.076 39.7173C31.7305 38.3503 31.7842 38.4348 31.0009 38.1276C30.6246 37.9894 30.1024 37.7897 29.8489 37.6899C28.7354 37.2675 25.5329 36.0234 25.3947 35.9619C24.98 35.7776 23.9586 35.409 23.9355 35.432C23.9278 35.4397 23.8587 35.8851 23.7896 36.415C23.3903 39.4178 22.5455 40.6235 20.9558 40.4546C19.7885 40.3317 18.9514 39.2949 18.2218 37.0448C18.0528 36.5533 17.8762 35.9466 17.8301 35.7085C17.7764 35.4627 17.6919 35.2631 17.6458 35.2631C17.1159 35.2554 15.5416 35.0634 14.8734 34.9175C13.5295 34.6333 12.7308 34.234 12.2623 33.6119C12.0703 33.3662 12.0396 33.2433 12.0089 32.6904C11.9859 32.3141 12.0089 31.9454 12.0627 31.7842C12.2086 31.3618 12.7922 30.7628 13.445 30.3788C14.2898 29.8873 15.1422 29.5724 16.8932 29.1193C17.2158 29.0348 17.2158 29.0348 17.2158 28.6892C17.2158 28.1516 17.3617 26.9229 17.5229 26.1472C17.7226 25.1873 18.0605 24.4039 18.4906 23.9124C18.7747 23.5899 18.9207 23.49 19.2739 23.3902C20.1341 23.1368 20.9404 23.3825 21.5702 24.0891C22.1538 24.7342 22.8527 26.3239 23.206 27.7984C23.2981 28.1824 23.4133 28.5049 23.4671 28.5049C23.5131 28.5049 23.9355 28.5433 24.3963 28.5817C26.9921 28.8198 28.5434 29.4342 28.9734 30.3864C29.1347 30.7397 29.1654 31.523 29.0349 31.9992C28.9043 32.4677 28.1594 33.1511 27.2916 33.5966C26.8999 33.7962 26.5236 33.9575 26.4622 33.9575C26.155 33.9575 26.4775 34.1188 27.76 34.6103C28.528 34.9021 29.5571 35.3015 30.0486 35.4935L30.9394 35.8467L30.8396 35.4551C30.6169 34.5949 30.4172 33.1742 30.3711 32.076C30.2943 30.0639 30.5478 28.0364 31.2313 25.1642C31.4233 24.3655 31.5999 23.6206 31.6229 23.5131C31.6613 23.3211 31.6537 23.3134 31.0239 23.2289C30.6707 23.1752 29.9948 23.0753 29.511 23.0062C28.9658 22.9217 28.6278 22.9064 28.5894 22.9525C28.505 23.083 27.8676 23.3518 27.4298 23.444C26.7847 23.5822 25.4177 23.4747 24.3349 23.2136C22.5839 22.7758 21.2399 21.8543 20.2185 20.4105C19.9267 19.9881 19.9037 19.919 19.9037 19.4505C19.9113 18.7286 20.0496 18.5827 20.9942 18.2985C21.8543 18.0374 22.2767 17.9837 23.4287 17.9837C24.7189 17.9837 25.2641 18.0912 26.4007 18.5596C27.6986 19.0972 28.697 19.8882 28.9965 20.6101C29.104 20.8559 29.1501 20.8866 29.4803 20.9327C29.68 20.9634 29.9718 21.0095 30.1177 21.0325L30.3865 21.0786L30.087 20.7023C29.918 20.4949 29.6569 20.1877 29.511 20.0111C29.3574 19.8422 28.912 19.2969 28.5126 18.8054C27.9213 18.0758 27.7524 17.9069 27.5911 17.9069C27.3069 17.9069 26.6158 17.6381 26.2625 17.4C25.8324 17.1005 24.9877 16.1789 24.5653 15.5415C23.6514 14.1668 23.3595 13.1531 23.3595 11.3484C23.3672 10.0735 23.4287 9.67418 23.6667 9.41307C23.8203 9.2518 23.9125 9.22876 24.3656 9.22876C24.9953 9.22876 25.556 9.44379 26.4698 10.0351C27.6756 10.8185 28.2746 11.5096 28.935 12.8766C29.5341 14.1131 29.6646 14.666 29.6493 15.8103L29.6339 16.7472L30.3174 17.5766C30.7014 18.0297 31.2159 18.6595 31.4693 18.9743L31.9225 19.5426L31.9455 18.4521L31.9685 17.3616L31.7228 17.1543C31.3388 16.8317 30.9932 16.225 30.7705 15.4801C30.5862 14.881 30.5631 14.6199 30.5247 13.3374C30.4863 12.0319 30.494 11.8091 30.6399 11.2485C30.855 10.4114 31.2006 9.6281 31.6997 8.87549C32.222 8.08448 32.3525 8 33.013 8C33.6734 8.00768 33.7963 8.10752 34.4491 9.175C35.1556 10.35 35.4244 11.2101 35.4782 12.5003C35.5626 14.6891 35.1249 16.4016 34.2955 17.1235L33.9499 17.4307L33.9729 18.5212L33.996 19.6194L35.0711 18.3292C35.6625 17.6227 36.177 16.9776 36.2231 16.9008C36.2615 16.824 36.3153 16.7549 36.3383 16.7549C36.3613 16.7549 36.369 16.3556 36.3537 15.8717C36.3229 15.1038 36.346 14.9118 36.5226 14.282C37.0448 12.4696 38.0125 11.0642 39.3641 10.1503C40.3471 9.48987 40.9922 9.22876 41.6143 9.22876C42.1058 9.22876 42.1595 9.24412 42.3746 9.46683L42.5973 9.69722L42.6203 11.0719C42.6664 13.1377 42.4437 14.0056 41.5298 15.4109C40.5775 16.8778 39.656 17.6458 38.6038 17.8608L38.1968 17.9453L37.0064 19.366C36.3537 20.1493 35.8238 20.7944 35.8391 20.8098C35.8468 20.8252 36.2308 20.756 36.6762 20.6639L37.4979 20.4873L37.7283 20.0495C38.2122 19.151 39.272 18.4444 41.0076 17.8531C41.7679 17.592 41.9138 17.569 42.9429 17.5382C44.1947 17.4998 45.0702 17.6227 45.9533 17.9529C46.6368 18.2141 46.7827 18.3984 46.7827 19.0204C46.7827 19.581 46.6215 19.8729 45.8151 20.7407C44.8859 21.7467 44.0411 22.269 42.7432 22.6529C41.7218 22.9601 40.7388 23.083 39.7635 23.0369C39.0646 22.9985 38.8957 22.9601 38.481 22.7528C38.2198 22.6222 37.9664 22.5147 37.9203 22.5147C37.8742 22.5147 36.9296 22.7067 35.8238 22.9525L33.8117 23.3979L33.3509 25.2794C31.9993 30.8242 32.0146 32.5828 33.4584 37.0064C34.3339 39.7096 34.6641 41.7141 34.787 45.1469L34.8408 46.6214L35.9313 45.9917C36.538 45.6461 37.3904 45.1623 37.8359 44.9165C38.2813 44.6708 38.6422 44.4557 38.6422 44.4327C38.6422 44.4173 38.3427 44.2484 37.9741 44.0641C36.0465 43.0964 35.2401 42.0904 35.3707 40.8539C35.3937 40.6082 35.4628 40.3087 35.5243 40.1935C35.6471 39.9631 36.0388 39.5868 36.3613 39.3794C36.945 39.0185 39.0416 38.7497 40.5698 38.8418L41.3762 38.8956L41.6296 38.2505C41.9599 37.4211 42.5819 36.1923 42.9582 35.6394C43.3192 35.1095 44.0104 34.449 44.3636 34.3031C44.7783 34.1265 45.8689 34.1495 46.2452 34.3415C46.7674 34.6026 47.0823 35.1402 47.3357 36.1616C47.4816 36.7453 47.5046 37.0678 47.5046 38.5039L47.5123 40.1704L48.2419 40.4546C48.864 40.6926 49.4553 40.9845 50.4844 41.5605C51.1832 41.9444 51.9359 42.7278 52.1202 43.2577C52.3582 43.9181 52.22 44.8704 51.836 45.3235C51.26 46.007 49.7702 46.3449 47.5661 46.3065C46.4832 46.2912 46.1684 46.3065 46.1684 46.3833C46.1684 46.5677 45.3543 48.3724 44.978 49.0021C44.5249 49.7701 43.8107 50.5688 43.3729 50.7992C43.1425 50.9144 42.8738 50.9681 42.3669 50.9912C41.7064 51.0142 41.6604 51.0065 41.3148 50.7838C40.5161 50.277 40.1935 49.3093 40.063 47.0668L40.0092 46.1683L39.4947 46.4448C39.2182 46.5984 38.3504 47.0899 37.5671 47.5276C36.7837 47.973 35.8084 48.526 35.3937 48.7564C34.5873 49.2172 34.6104 49.1788 34.5336 50.0082C34.3416 52.0203 33.3739 55.9446 32.9669 56.3516C32.8056 56.5129 32.7135 56.536 32.2373 56.536C31.9301 56.536 31.6383 56.4899 31.5692 56.4361ZM42.8738 48.3033C43.3345 47.6428 43.8184 46.6598 44.21 45.5923C44.3636 45.1699 44.5249 44.7322 44.571 44.617C44.6094 44.5018 44.763 44.3559 44.9242 44.2791C45.1777 44.1639 45.2852 44.1562 46.1684 44.2484C47.6736 44.402 49.7087 44.2637 49.9852 43.9873C50.085 43.8874 49.4399 43.4036 48.6105 42.9505C48.288 42.7739 47.497 42.4283 46.8442 42.1825C45.3236 41.6142 45.339 41.6296 45.4695 40.301C45.5156 39.7941 45.554 38.9954 45.554 38.5423C45.554 37.7206 45.385 36.5994 45.2314 36.4534C45.001 36.223 43.7569 38.4118 43.2808 39.8709C43.1502 40.2779 42.989 40.6005 42.8584 40.7311C42.605 40.9845 42.4667 40.9922 40.7849 40.8539C39.8249 40.7771 39.5408 40.7848 38.8265 40.8846C38.3658 40.9461 37.8896 41.0459 37.7667 41.092C37.5824 41.1688 37.5671 41.1995 37.6515 41.2993C37.8205 41.5067 38.6038 42.0059 39.2643 42.3361C39.8326 42.6203 41.5912 43.3268 41.7372 43.3268C41.7679 43.3268 41.7602 43.2577 41.7141 43.1809C41.6757 43.0964 41.6373 42.8199 41.6373 42.5665C41.6373 42.1902 41.668 42.0673 41.8216 41.8907C41.9752 41.7064 42.0827 41.668 42.4898 41.6373L42.9659 41.5989L43.0504 41.2917C43.1656 40.877 43.5035 40.7003 44.1102 40.7387C44.7476 40.7771 44.9396 40.9768 44.9396 41.5758C44.9396 41.9368 44.9626 42.0366 45.0778 42.0673C45.5079 42.2132 45.6461 42.2977 45.746 42.4897C45.8765 42.7355 45.8996 43.3729 45.7844 43.6647C45.6845 43.9258 45.3313 44.0948 44.8628 44.0948C44.5019 44.0948 44.4788 44.1025 44.4788 44.2944C44.4788 44.4096 44.3867 44.5863 44.2561 44.7168C44.0488 44.9165 43.9796 44.9395 43.5035 44.9395C43.1579 44.9395 42.9198 44.9011 42.8123 44.8244C42.628 44.6938 42.4821 44.2791 42.4821 43.8874C42.4821 43.6877 42.4437 43.634 42.244 43.5649C42.029 43.4881 42.0136 43.4958 42.0597 43.6186C42.1903 43.9258 42.1903 44.1025 42.0981 45.3619C42.0213 46.391 42.0136 46.8595 42.0827 47.4585C42.1595 48.119 42.3515 48.8562 42.4514 48.8562C42.4667 48.8562 42.6587 48.6028 42.8738 48.3033ZM21.4857 37.4518C21.7161 36.7222 21.8697 35.6701 21.9388 34.2877C22.0079 33.0283 22.0079 33.0283 23.1752 32.7672C23.636 32.6596 24.3042 32.4907 24.6651 32.3755C25.3947 32.1528 26.6618 31.5691 26.8154 31.3848C26.8999 31.285 26.8615 31.2466 26.5697 31.116C25.8017 30.7781 24.1045 30.5016 22.7912 30.5016C22.4303 30.5016 22.054 30.4632 21.9465 30.4172C21.7545 30.325 21.5164 29.9333 21.5164 29.6953C21.5164 29.4726 21.071 27.7907 20.8636 27.2531C20.6409 26.6464 20.3337 26.0243 20.111 25.7172C19.9267 25.4484 19.896 25.4791 19.6349 26.3008C19.3891 27.0611 19.2355 28.1056 19.1741 29.3881C19.1434 29.941 19.0896 30.4632 19.0435 30.5554C18.9437 30.7627 18.744 30.8395 17.8301 31.0392C16.4862 31.3234 14.8427 31.9377 14.3819 32.3217L14.1899 32.4753L14.428 32.5982C15.0731 32.9361 16.3787 33.1742 18.0068 33.2587C19.4506 33.3278 19.4198 33.3047 19.7117 34.6487C20.0189 36.0541 20.6332 37.6668 21.0403 38.1276C21.1939 38.2966 21.2323 38.2428 21.4857 37.4518ZM26.8385 21.4472C27.0689 21.3627 26.8462 21.1861 25.771 20.6255C24.7803 20.1109 23.6667 19.8422 23.014 19.965L22.7144 20.0188L23.206 20.3951C23.8127 20.8482 24.3349 21.0863 25.1566 21.2783C26.0935 21.5087 26.5774 21.5547 26.8385 21.4472ZM41.6988 20.7868C42.0827 20.6869 42.5512 20.5257 42.7355 20.4335C43.1425 20.2261 43.8644 19.6962 43.8644 19.5964C43.8644 19.4428 42.7125 19.5119 42.0674 19.7116C40.9769 20.0418 39.5868 20.8405 39.8172 21.0018C39.9631 21.1016 40.9308 20.9941 41.6988 20.7868ZM27.6525 15.4417C27.4068 14.3435 26.6542 12.9765 25.963 12.3467C25.7019 12.1087 25.4561 11.9167 25.4177 11.9167C25.2718 11.9167 25.5483 12.9227 25.8555 13.5294C26.0628 13.9364 26.6004 14.7044 26.9306 15.073C27.1533 15.3188 27.6448 15.7565 27.6986 15.7565C27.7063 15.7565 27.6909 15.6183 27.6525 15.4417ZM39.3104 14.8042C39.894 14.0593 40.2857 13.3528 40.4854 12.7077C40.7234 11.909 40.685 11.8322 40.2089 12.2162C39.7097 12.6232 39.3488 13.107 38.9648 13.875C38.6422 14.5124 38.335 15.3726 38.335 15.6183C38.335 15.7489 38.3658 15.7412 38.6115 15.5569C38.7651 15.4417 39.0723 15.1038 39.3104 14.8042ZM33.3816 14.1822C33.5813 13.0225 33.5198 12.2239 33.1589 11.333L32.9899 10.9106L32.8824 11.1257C32.8287 11.2409 32.7211 11.548 32.6444 11.8015C32.3832 12.6309 32.4908 14.2743 32.8594 15.0884L32.9899 15.3879L33.1282 15.1191C33.205 14.9655 33.3125 14.5431 33.3816 14.1822Z" fill="black"/>
<path d="M20.4336 33.9806C20.1417 33.9345 19.896 33.635 19.8499 33.274C19.8115 32.9668 19.7962 32.9592 19.512 32.9592C18.8669 32.9592 18.5981 32.6597 18.5981 31.9531C18.5981 31.4232 18.8439 31.0776 19.2816 31.0008C19.5658 30.9548 19.5811 30.9394 19.6195 30.6092C19.6656 30.1407 19.8422 29.9103 20.2262 29.8028C20.9481 29.6108 21.5932 29.9487 21.5932 30.517V30.8088H21.9695C22.5455 30.8088 22.7605 31.0239 22.8066 31.6459C22.8296 31.9147 22.7989 32.2066 22.7452 32.3371C22.653 32.5752 22.269 32.8056 21.9849 32.8056C21.8543 32.8056 21.8236 32.8516 21.8236 33.0744C21.8236 33.8193 21.3551 34.1265 20.4336 33.9806Z" fill="black"/>
</svg>
