<svg width="64" height="64" viewBox="0 0 64 64" fill="none" xmlns="http://www.w3.org/2000/svg">
<path d="M23.5222 47.6206C22.8759 46.9743 22.4762 46.0814 22.4762 45.0952C22.4762 43.1228 24.0752 41.5238 26.0476 41.5238C27.0339 41.5238 27.9267 41.9235 28.573 42.5698M32.2043 38.9386C31.3425 38.0768 30.8095 36.8864 30.8095 35.5714C30.8095 32.9415 32.9415 30.8095 35.5714 30.8095C36.8864 30.8095 38.0769 31.3425 38.9386 32.2042M41.3794 28.573C40.7331 27.9267 40.3333 27.0338 40.3333 26.0476C40.3333 24.0752 41.9323 22.4762 43.9048 22.4762C44.891 22.4762 45.7839 22.8759 46.4302 23.5222M51.0476 25.3267C51.0476 28.0083 49.7074 30.5125 47.4762 32C45.245 33.4875 43.9048 35.9917 43.9048 38.6733V39.1428C43.9048 41.9414 42.0001 44.3809 39.285 45.0597L38.5451 45.2447C35.8657 45.9145 33.5321 47.5591 32 49.8571C30.5125 52.0884 28.0083 53.4286 25.3267 53.4286H15.3333C15.1 53.4286 17.7143 49.8364 17.7143 47.6804V45.8161C17.7143 43.1345 19.0545 40.6303 21.2857 39.1428C23.5838 37.6108 25.2283 35.2772 25.8982 32.5977L26.3719 30.7029C26.881 28.6666 28.7106 27.2381 30.8095 27.2381C32.9983 27.2381 34.9993 26.0014 35.9782 24.0437L37.0133 21.9734C38.3184 19.3631 40.9864 17.7143 43.9048 17.7143H45.2995C47.4555 17.7143 51 15 51.0476 15.3333V25.3267ZM16.5238 29.619C18.4963 29.619 20.0952 28.02 20.0952 26.0476C20.0952 24.0752 18.4963 22.4762 16.5238 22.4762C14.5514 22.4762 12.9524 24.0752 12.9524 26.0476C12.9524 28.02 14.5514 29.619 16.5238 29.619ZM16.5238 17.7143C18.4963 17.7143 20.0952 16.1153 20.0952 14.1428C20.0952 12.1704 18.4963 10.5714 16.5238 10.5714C14.5514 10.5714 12.9524 12.1704 12.9524 14.1428C12.9524 16.1153 14.5514 17.7143 16.5238 17.7143ZM28.4286 20.0952C30.401 20.0952 32 18.4962 32 16.5238C32 14.5513 30.401 12.9524 28.4286 12.9524C26.4561 12.9524 24.8572 14.5513 24.8572 16.5238C24.8572 18.4962 26.4561 20.0952 28.4286 20.0952Z" stroke="black" stroke-width="2" stroke-linecap="round"/>
</svg>
