<svg width="64" height="64" viewBox="0 0 64 64" fill="none" xmlns="http://www.w3.org/2000/svg">
<path d="M56.0465 35.3781C55.9696 35.2667 54.5518 33.2435 52.2324 32.0006C54.552 30.7572 55.9697 28.7333 56.0465 28.622C56.4213 28.0779 56.29 27.3338 55.7516 26.9508C55.6417 26.8725 53.6177 25.4564 51.0125 25.0809C52.7675 23.1186 53.4074 20.732 53.4413 20.6015C53.6073 19.962 53.2295 19.3077 52.5926 19.1319C52.4625 19.0961 50.0753 18.4573 47.4992 18.9959C48.4772 16.552 48.2623 14.09 48.2495 13.9555C48.1869 13.2977 47.6065 12.8087 46.9494 12.8648C46.8148 12.8756 44.3531 13.0917 42.1165 14.4791C42.1997 11.8485 41.1559 9.60857 41.0978 9.48655C40.8139 8.88982 40.1038 8.63165 39.5029 8.90636C39.38 8.96261 37.1408 10.0083 35.5135 12.0769C34.6919 9.57511 32.9448 7.82694 32.8486 7.73213C32.3778 7.26857 31.6221 7.26857 31.1515 7.73213C31.0553 7.82684 29.3087 9.57453 28.4869 12.0758C26.8596 10.008 24.6211 8.96251 24.4983 8.90636C23.8973 8.63165 23.1871 8.88982 22.9034 9.48655C22.8453 9.60857 21.8015 11.8485 21.8841 14.4792C19.6471 13.0918 17.1861 12.8756 17.0515 12.8648C16.3952 12.8108 15.8141 13.2981 15.7515 13.9558C15.7388 14.0902 15.5239 16.5524 16.5021 18.9965C13.9259 18.4574 11.538 19.0961 11.4077 19.1321C10.7707 19.3079 10.3928 19.9625 10.559 20.6019C10.5929 20.7326 11.2336 23.1193 12.9886 25.0816C10.3842 25.4572 8.35876 26.8726 8.24857 26.9508C7.71011 27.3339 7.57876 28.0782 7.95376 28.6223C8.03039 28.7336 9.44895 30.7574 11.7688 32.0007C9.44905 33.2437 8.03068 35.2666 7.95395 35.3777C7.57876 35.9218 7.70991 36.6662 8.24837 37.0492C8.35837 37.1276 10.3824 38.5447 12.9874 38.9206C11.2333 40.8821 10.593 43.2677 10.559 43.3985C10.3929 44.0379 10.7708 44.6924 11.4078 44.8683C11.4998 44.8937 12.7181 45.2205 14.3337 45.2205C15.0052 45.2205 15.7456 45.1632 16.5022 45.005C15.524 47.4491 15.7389 49.9113 15.7516 50.0458C15.8112 50.6708 16.3369 51.1405 16.954 51.1405C16.9865 51.1405 17.019 51.1391 17.0517 51.1366C17.1864 51.1258 19.6472 50.9096 21.8841 49.5221C21.8016 52.1526 22.8453 54.3926 22.9033 54.5146C23.1102 54.9497 23.5436 55.2048 23.9961 55.2048C24.1645 55.2048 24.3355 55.1695 24.4984 55.095C24.6211 55.039 26.8598 53.9935 28.4871 51.925C29.3089 54.4256 31.0554 56.1734 31.1516 56.268C31.3869 56.4998 31.6936 56.6156 32.0002 56.6156C32.3068 56.6156 32.6134 56.4997 32.8489 56.268C32.9451 56.1732 34.6921 54.4251 35.5138 51.9239C37.1411 53.9929 39.3805 55.0387 39.5032 55.0949C39.6663 55.1694 39.8371 55.2047 40.0055 55.2047C40.458 55.2047 40.8914 54.9496 41.0982 54.5145C41.1561 54.3925 42.1996 52.1527 42.1166 49.522C44.3533 50.9094 46.815 51.1258 46.9496 51.1366C46.9824 51.1392 47.0149 51.1405 47.0473 51.1405C47.6645 51.1405 48.1902 50.6707 48.2497 50.0458C48.2625 49.9114 48.4774 47.4491 47.4993 45.0052C48.2557 45.1633 48.9958 45.2204 49.6671 45.2204C51.2825 45.2204 52.5007 44.8936 52.5926 44.8682C53.2295 44.6924 53.6072 44.0381 53.4413 43.3987C53.4074 43.268 52.7677 40.8822 51.0136 38.9208C53.6182 38.5448 55.6419 37.1274 55.752 37.0491C56.2902 36.6662 56.4213 35.922 56.0465 35.3781ZM53.1832 28.2655C52.365 29.0992 51.0274 30.1858 49.4089 30.4708C48.6024 30.613 47.72 30.5588 46.777 30.3098C46.7765 30.3048 46.7757 30.3 46.7751 30.2952C46.7634 30.1923 46.7494 30.0899 46.7357 29.9874C46.7296 29.9432 46.7248 29.8987 46.7184 29.8544C46.6757 29.5587 46.6241 29.2649 46.564 28.9737C46.5625 28.9666 46.5607 28.9595 46.5592 28.9524C46.5306 28.8148 46.5001 28.6777 46.4675 28.5413C46.4669 28.5388 46.4665 28.5361 46.4658 28.5336C47.2642 27.9787 48.0744 27.6264 48.8817 27.4837C50.5 27.198 52.1291 27.762 53.1832 28.2655ZM50.6289 21.2457C50.1451 22.3088 49.2594 23.7875 47.8353 24.6095C47.1261 25.0192 46.279 25.2697 45.3099 25.3576C45.3076 25.353 45.3051 25.3484 45.3028 25.3439C45.2647 25.2679 45.2247 25.193 45.1854 25.1176C45.1564 25.0621 45.1285 25.0062 45.0987 24.951C45.0288 24.8214 44.957 24.6927 44.8833 24.5651C44.8686 24.5397 44.8529 24.5148 44.8381 24.4894C44.778 24.3869 44.7175 24.2847 44.655 24.1837C44.6239 24.1333 44.5911 24.084 44.5592 24.0339C44.5115 23.9591 44.4645 23.8838 44.4156 23.8096C44.4126 23.8049 44.4096 23.8002 44.4065 23.7955C44.9679 23.0007 45.6089 22.3927 46.3192 21.9832C47.743 21.1609 49.4663 21.1337 50.6289 21.2457ZM42.0303 17.689C43.0857 16.4309 44.6939 15.8156 45.8241 15.5236C45.7313 16.6901 45.404 18.3865 44.3534 19.6383C43.8252 20.2672 43.1136 20.7931 42.2323 21.2072C42.2294 21.2044 42.2263 21.2017 42.2233 21.1989C42.1512 21.1305 42.0774 21.0638 42.0039 20.9969C41.968 20.9641 41.9328 20.9308 41.8965 20.8984C41.7866 20.8003 41.6751 20.7037 41.5622 20.6088C41.5356 20.5864 41.5081 20.5649 41.4814 20.5427C41.3941 20.4705 41.307 20.3986 41.2181 20.3283C41.1731 20.2929 41.1271 20.2587 41.0818 20.2237C41.0097 20.1681 40.9381 20.1119 40.865 20.0576C40.8608 20.0544 40.8567 20.0512 40.8525 20.0481C41.1077 19.1087 41.5024 18.3175 42.0303 17.689ZM36.5304 15.1216C37.0922 13.5791 38.3929 12.451 39.3549 11.7899C39.6665 12.9176 39.939 14.623 39.3802 16.1578C39.0994 16.9276 38.6117 17.6645 37.9266 18.356C37.9225 18.3541 37.9183 18.3526 37.9141 18.3508C37.8216 18.3107 37.7283 18.2725 37.6349 18.2343C37.5911 18.2164 37.5476 18.1973 37.5036 18.1798C37.3662 18.125 37.228 18.0722 37.089 18.0216C37.0886 18.0216 37.0881 18.0213 37.0877 18.0212C36.9484 17.9704 36.8083 17.9217 36.6675 17.8753C36.6196 17.8594 36.5714 17.8452 36.5234 17.8299C36.4301 17.8002 36.3369 17.7701 36.2431 17.7421C36.2388 17.7409 36.2345 17.7393 36.2303 17.7381C36.1503 16.7677 36.2507 15.8899 36.5304 15.1216ZM31.9998 10.49C32.6786 11.4407 33.5163 12.9469 33.5163 14.5916C33.5163 15.4104 33.3097 16.2699 32.9013 17.1542C32.8939 17.1538 32.8865 17.1537 32.8791 17.1533C32.8789 17.1533 32.8787 17.1533 32.8784 17.1533C32.5873 17.1361 32.2939 17.1271 31.9999 17.1271C31.7338 17.1271 31.4684 17.1355 31.2044 17.1495C31.1745 17.1511 31.1444 17.1518 31.1147 17.1535C31.1094 17.1539 31.104 17.1539 31.0987 17.1542C30.6902 16.2698 30.4837 15.4104 30.4837 14.5915C30.4836 12.9469 31.3215 11.4403 31.9998 10.49ZM24.6425 11.7911C25.6065 12.4549 26.9116 13.5866 27.4708 15.1212C27.7508 15.8908 27.8511 16.7685 27.7704 17.738C27.7654 17.7394 27.7605 17.7412 27.7555 17.7427C27.6706 17.7679 27.5864 17.7953 27.5019 17.822C27.4455 17.8399 27.3887 17.8567 27.3323 17.8754C27.1924 17.9216 27.053 17.9698 26.9145 18.0203C26.8994 18.0258 26.8845 18.0319 26.8694 18.0375C26.7449 18.0832 26.6208 18.1303 26.4976 18.1793C26.4501 18.1982 26.4032 18.2188 26.3558 18.2381C26.2657 18.2751 26.1755 18.3117 26.0862 18.3504C26.0819 18.3522 26.0776 18.3539 26.0735 18.3557C25.3876 17.6646 24.9001 16.9281 24.6201 16.159C24.0589 14.6159 24.3303 12.9157 24.6425 11.7911ZM21.9714 17.6897C22.4977 18.3162 22.892 19.1072 23.148 20.0481C23.1451 20.0503 23.1422 20.0526 23.1392 20.0547C23.0465 20.1237 22.9551 20.1943 22.864 20.2654C22.8385 20.2852 22.8124 20.3044 22.787 20.3244C22.5534 20.509 22.3254 20.7006 22.1033 20.8988C22.0816 20.9181 22.0607 20.9382 22.039 20.9576C21.9508 21.0373 21.863 21.1173 21.7766 21.1991C21.7738 21.2017 21.7707 21.2043 21.7678 21.2071C20.8873 20.7932 20.1762 20.2675 19.6479 19.6386C18.591 18.3792 18.2648 16.6866 18.1739 15.5227C19.3047 15.8148 20.9143 16.4305 21.9714 17.6897ZM17.6815 21.9837C18.3912 22.393 19.0322 23.0007 19.5934 23.7955C19.5905 23.7998 19.5878 23.8043 19.585 23.8086C19.5327 23.8879 19.4821 23.9683 19.4314 24.0485C19.4029 24.0934 19.3736 24.1376 19.3456 24.1828C19.2752 24.2966 19.2067 24.4115 19.1395 24.5269C19.1323 24.5395 19.1244 24.5517 19.1171 24.5643C19.0431 24.6924 18.9711 24.8216 18.901 24.9516C18.8747 25.0004 18.8501 25.0498 18.8244 25.0988C18.7816 25.1805 18.7382 25.2618 18.6969 25.3443C18.6946 25.3489 18.6922 25.3532 18.69 25.3578C17.721 25.2699 16.8739 25.0193 16.1647 24.6098C14.7409 23.7874 13.8551 22.3085 13.3714 21.246C14.5344 21.1334 16.2581 21.1613 17.6815 21.9837ZM10.8189 28.2677C11.8761 27.7648 13.5092 27.2002 15.1172 27.4835C15.9251 27.6262 16.7356 27.9785 17.5343 28.5332C17.5334 28.5372 17.5326 28.5413 17.5316 28.5454C17.5052 28.6567 17.4809 28.7685 17.4569 28.8805C17.45 28.9129 17.442 28.9452 17.4354 28.9776C17.3749 29.2697 17.3235 29.5637 17.2809 29.8588C17.277 29.8854 17.2741 29.9121 17.2705 29.9387C17.254 30.0581 17.238 30.1778 17.2243 30.2977C17.2239 30.302 17.2231 30.3063 17.2226 30.3107C16.2816 30.5595 15.3995 30.6134 14.5916 30.4709C12.9744 30.186 11.6371 29.1008 10.8189 28.2677ZM10.8171 35.7353C11.6355 34.9019 12.9737 33.8157 14.5924 33.5307C15.4 33.3881 16.282 33.4421 17.2229 33.6909C17.2235 33.696 17.2242 33.7009 17.2248 33.706C17.2353 33.7983 17.248 33.8901 17.2602 33.9821C17.2674 34.0367 17.2737 34.0916 17.2816 34.1462C17.324 34.4399 17.3755 34.7322 17.4355 35.0226C17.4426 35.057 17.451 35.0913 17.4584 35.1258C17.4819 35.2362 17.5059 35.3464 17.532 35.456C17.533 35.4598 17.5338 35.4639 17.5345 35.4677C16.735 36.0222 15.9246 36.3746 15.1181 36.5178C13.4995 36.8036 11.8707 36.2387 10.8171 35.7353ZM13.3746 42.755C13.8611 41.6906 14.7491 40.2087 16.1645 39.3919C16.8736 38.9824 17.7208 38.7318 18.6901 38.6438C18.6918 38.647 18.6936 38.6503 18.6952 38.6536C18.7436 38.7502 18.7941 38.8459 18.8446 38.9414C18.8633 38.9766 18.8808 39.0119 18.8996 39.047C18.9697 39.1771 19.0419 39.3064 19.1161 39.4345C19.1349 39.4672 19.155 39.4991 19.1741 39.5316C19.23 39.6266 19.2859 39.7214 19.344 39.8152C19.381 39.8749 19.4196 39.9339 19.4575 39.9931C19.4992 40.0584 19.5401 40.1241 19.5828 40.1888C19.5865 40.1942 19.5897 40.1997 19.5933 40.2052C19.0317 41 18.3906 41.6084 17.6807 42.0181C16.2588 42.8391 14.5365 42.8666 13.3746 42.755ZM21.9711 46.3124C20.9141 47.5715 19.304 48.1867 18.174 48.4786C18.265 47.314 18.5914 45.6217 19.6481 44.3626C20.1764 43.7331 20.8875 43.2068 21.7679 42.793C21.7713 42.7962 21.7746 42.7991 21.7781 42.8023C21.8564 42.8765 21.9362 42.9489 22.016 43.0213C22.0456 43.0481 22.0745 43.0757 22.1042 43.1023C22.3262 43.3004 22.5539 43.4916 22.7869 43.6757C22.8128 43.6962 22.8393 43.7156 22.8653 43.7359C22.956 43.8066 23.0469 43.877 23.1391 43.9456C23.1421 43.9478 23.1449 43.9502 23.148 43.9523C22.8918 44.8933 22.4974 45.6849 21.9711 46.3124ZM27.4707 48.8789C26.9084 50.4234 25.6059 51.5522 24.6435 52.2133C24.3305 51.0875 24.0582 49.3856 24.62 47.8416C24.8998 47.0725 25.3875 46.3359 26.0734 45.6448C26.0775 45.6466 26.0816 45.6482 26.0857 45.6499C26.1796 45.6907 26.2744 45.7292 26.3691 45.7681C26.4118 45.7856 26.454 45.804 26.4968 45.8211C26.6321 45.875 26.7683 45.9268 26.9052 45.9768C26.9077 45.9778 26.9103 45.9788 26.9128 45.9797C27.0522 46.0305 27.1925 46.0791 27.3335 46.1256C27.38 46.141 27.4269 46.1547 27.4737 46.1697C27.5681 46.1998 27.6623 46.2302 27.7572 46.2585C27.7617 46.2598 27.7661 46.2613 27.7704 46.2626C27.851 47.2318 27.7509 48.1092 27.4707 48.8789ZM32 53.5102C31.3213 52.5598 30.4836 51.0538 30.4836 49.41C30.4836 48.5913 30.6902 47.7316 31.099 46.8461C31.1027 46.8464 31.1065 46.8464 31.1102 46.8466C31.2239 46.8533 31.3381 46.8578 31.4524 46.8619C31.4853 46.8632 31.5181 46.8653 31.5511 46.8663C31.7004 46.8708 31.8501 46.873 31.9999 46.873C32.1498 46.873 32.2996 46.8706 32.4489 46.8663C32.4757 46.8654 32.5024 46.8638 32.5292 46.8628C32.6502 46.8586 32.771 46.8538 32.8909 46.8465C32.8941 46.8462 32.8975 46.8462 32.9008 46.846C33.3094 47.7315 33.5162 48.5913 33.5162 49.4099C33.5163 51.054 32.6784 52.5602 32 53.5102ZM39.3575 52.2131C38.3946 51.5517 37.0926 50.4229 36.5303 48.8791C36.2506 48.1104 36.1501 47.2327 36.2303 46.2622C36.2346 46.2609 36.239 46.2594 36.2435 46.2581C36.3414 46.229 36.4387 46.1976 36.536 46.1666C36.5793 46.1526 36.6233 46.1398 36.6665 46.1254C36.9498 46.0319 37.2301 45.9296 37.5069 45.8192C37.5248 45.8121 37.5425 45.8042 37.5605 45.797C37.6802 45.7487 37.7996 45.6993 37.9181 45.6478C37.921 45.6466 37.9239 45.6454 37.9266 45.6441C38.6117 46.3354 39.0994 47.0724 39.3801 47.8417C39.9423 49.3858 39.6702 51.0875 39.3575 52.2131ZM39.0725 42.2518C38.9928 42.3068 38.913 42.3616 38.8321 42.4147C38.8318 42.4148 38.8316 42.4151 38.8314 42.4153C38.8314 42.4153 38.8311 42.4154 38.831 42.4156C38.4325 42.6777 38.0207 42.916 37.6028 43.1254C37.4939 43.1805 37.384 43.234 37.2737 43.2857C36.5001 43.6485 35.6892 43.9302 34.8581 44.1248C34.3932 44.2339 33.9246 44.3156 33.4582 44.3689C32.7465 44.4542 31.9956 44.4756 31.2643 44.433C31.0192 44.4186 30.7753 44.3969 30.5346 44.3682C30.0759 44.316 29.6077 44.2343 29.1432 44.1254C29.1427 44.1253 29.1423 44.1251 29.1419 44.125C28.1923 43.9024 27.2688 43.5663 26.3964 43.1263C25.9781 42.9149 25.5655 42.676 25.169 42.4149C24.3552 41.8808 23.6028 41.2488 22.9308 40.5346C22.6115 40.1971 22.3041 39.8317 22.0186 39.451C21.9449 39.3524 21.8729 39.2528 21.8024 39.1523C21.3087 38.449 20.8901 37.7002 20.5555 36.9207C20.3666 36.4828 20.204 36.0358 20.0709 35.5889C19.7902 34.6561 19.6205 33.6887 19.5661 32.707C19.5524 32.4801 19.5454 32.2422 19.5454 32.0001C19.5454 31.7588 19.5524 31.5214 19.5665 31.2883C19.5735 31.1609 19.5828 31.0335 19.5938 30.9063C19.667 30.0604 19.827 29.2228 20.072 28.4087C20.2029 27.968 20.3656 27.5213 20.5562 27.0791C20.604 26.9674 20.6537 26.8566 20.7049 26.7463C20.8284 26.4809 20.9626 26.2201 21.1051 25.9636C21.3768 25.4743 21.6812 25.0016 22.0179 24.5513C22.0182 24.551 22.0183 24.5507 22.0185 24.5503C22.3024 24.1704 22.6092 23.8053 22.9326 23.4634C23.5187 22.8404 24.1679 22.2789 24.8668 21.7899C24.9665 21.7203 25.0671 21.652 25.1688 21.5853C25.169 21.5852 25.1692 21.5849 25.1695 21.5847C25.1695 21.5847 25.1698 21.5846 25.1699 21.5844C25.5654 21.3242 25.978 21.0852 26.3959 20.8741C26.614 20.7641 26.8353 20.6604 27.0594 20.5636C27.7318 20.2729 28.4294 20.042 29.1416 19.875C29.6065 19.766 30.0751 19.6842 30.5415 19.631C31.3435 19.5347 32.1947 19.5208 33.0121 19.5872C33.0417 19.5896 33.0715 19.5913 33.101 19.5938C33.144 19.5975 33.1864 19.6028 33.2291 19.607C33.3079 19.6149 33.3868 19.6222 33.4652 19.6317C33.9244 19.6841 34.393 19.7657 34.8582 19.8749C34.9879 19.9053 35.1172 19.9383 35.2459 19.973C36.0591 20.1918 36.8508 20.4942 37.6066 20.8767C38.0206 21.0841 38.4324 21.3223 38.831 21.5846C39.6492 22.1228 40.4013 22.7547 41.069 23.4657C41.3906 23.8057 41.6976 24.1709 41.9818 24.5515C42.0648 24.6623 42.1452 24.7748 42.2242 24.8882C42.7049 25.5775 43.1148 26.3132 43.4454 27.0834C43.6313 27.5118 43.7935 27.9581 43.9295 28.4157C44.2094 29.3414 44.379 30.3079 44.4338 31.2947C44.4474 31.5216 44.4544 31.759 44.4544 32.0003C44.4544 32.2424 44.4474 32.4802 44.4334 32.7133C44.4264 32.8405 44.417 32.9674 44.4061 33.0943C44.3329 33.9399 44.1728 34.7774 43.9277 35.5916C43.7959 36.035 43.6333 36.4822 43.4436 36.9225C43.0622 37.8112 42.5705 38.6614 41.9824 39.4494C41.6952 39.8322 41.388 40.1974 41.0664 40.5376C40.4651 41.1776 39.7954 41.7527 39.0725 42.2518ZM42.0302 46.3122C41.5025 45.6834 41.1078 44.8919 40.8527 43.9524C40.8559 43.9501 40.8589 43.9476 40.862 43.9453C40.952 43.8785 41.0406 43.8097 41.1291 43.741C41.1574 43.719 41.1864 43.6977 41.2144 43.6754C41.4478 43.491 41.6756 43.2994 41.8975 43.1016C41.9204 43.0811 41.9425 43.0599 41.9651 43.0394C42.052 42.9609 42.1388 42.8818 42.2238 42.8013C42.2266 42.7985 42.2297 42.796 42.2326 42.7932C43.1139 43.2073 43.8252 43.7335 44.3533 44.3627C45.409 45.6205 45.7358 47.3111 45.827 48.4755C44.6941 48.1812 43.0804 47.5641 42.0302 46.3122ZM46.3191 42.0181C45.6092 41.6082 44.968 40.9999 44.4065 40.2052C44.4097 40.2002 44.4127 40.1953 44.4159 40.1905C44.4658 40.1149 44.5139 40.0383 44.5623 39.9618C44.5932 39.9133 44.6249 39.8652 44.6552 39.8164C44.7247 39.704 44.7923 39.5905 44.8589 39.4765C44.8667 39.4628 44.8752 39.4495 44.8831 39.436C44.9577 39.3069 45.0304 39.1768 45.101 39.0458C45.1127 39.0239 45.1236 39.0017 45.1353 38.9799C45.1932 38.8712 45.2504 38.7621 45.3054 38.6521C45.3068 38.6493 45.3083 38.6466 45.3097 38.6439C46.2791 38.7319 47.1262 38.9824 47.8358 39.3921C49.2585 40.2129 50.1435 41.6891 50.6275 42.7517C49.4624 42.8628 47.7345 42.835 46.3191 42.0181ZM48.8835 36.5181C48.0754 36.3745 47.2646 36.0218 46.4654 35.4669C46.4664 35.4631 46.4671 35.4591 46.4681 35.4552C46.4931 35.3503 46.5159 35.2448 46.5386 35.1392C46.547 35.1001 46.5565 35.061 46.5647 35.0217C46.6249 34.7305 46.6764 34.4375 46.7189 34.1434C46.7232 34.1135 46.7265 34.0836 46.7306 34.0538C46.7468 33.9367 46.7624 33.8196 46.7758 33.7024C46.7762 33.6987 46.7767 33.695 46.7772 33.6913C47.7187 33.4421 48.6013 33.3885 49.4095 33.5311C51.0279 33.8161 52.3655 34.9021 53.1838 35.7354C52.1294 36.239 50.5008 36.8025 48.8835 36.5181Z" fill="black"/>
<path d="M39.5662 30.546C38.8985 30.546 38.3569 31.0874 38.3569 31.7552C38.3569 35.5838 35.2421 38.6986 31.4135 38.6986C30.7458 38.6986 30.2043 39.2401 30.2043 39.9079C30.2043 40.5757 30.7457 41.1171 31.4135 41.1171C36.5756 41.1171 40.7753 36.9175 40.7753 31.7553C40.7753 31.0874 40.2339 30.546 39.5662 30.546Z" fill="black"/>
<path d="M40.4847 27.5759L40.4623 27.3644C40.3922 26.7005 39.7989 26.2181 39.1329 26.2889C38.4689 26.3589 37.9872 26.9541 38.0573 27.6183L38.0795 27.8299C38.1451 28.451 38.6696 28.9122 39.2806 28.9122C39.3229 28.9122 39.3659 28.9099 39.409 28.9053C40.0733 28.8352 40.5549 28.24 40.4847 27.5759Z" fill="black"/>
</svg>
