<svg width="64" height="64" viewBox="0 0 64 64" fill="none" xmlns="http://www.w3.org/2000/svg">
<path d="M40.3945 23.6052L9.68706 54.313M23.915 40.085L24.444 39.6581C24.9572 39.2128 25.422 38.714 25.8304 38.1694C29.0039 33.9381 28.1464 27.9349 23.915 24.7613L23.386 25.1882C22.8728 25.6333 22.4079 26.1322 21.9996 26.6767C18.8259 30.9082 19.6835 36.9114 23.915 40.085ZM23.915 40.085L24.3419 40.6139C24.787 41.1271 25.286 41.5919 25.8305 42.0005C30.062 45.1739 36.0648 44.3163 39.2384 40.085L38.8115 39.5558C38.3665 39.0426 37.8674 38.5778 37.3229 38.1694C33.0915 34.9958 27.0886 35.8533 23.915 40.085ZM31.5767 32.423L32.1056 31.9961C32.6188 31.5511 33.0837 31.0523 33.492 30.5077C36.6659 26.2762 35.8081 20.2731 31.5767 17.0995L31.0478 17.5264C30.5346 17.9715 30.0698 18.4704 29.6614 19.0149C26.4877 23.2464 27.3451 29.2494 31.5767 32.423ZM31.5767 32.423L32.0037 32.9522C32.4489 33.4654 32.9477 33.9302 33.4923 34.3386C37.7237 37.5122 43.7265 36.6547 46.9001 32.423L46.4732 31.8941C46.0282 31.3809 45.5292 30.9161 44.9848 30.5077C40.7532 27.3341 34.7503 28.1916 31.5767 32.423ZM39.2384 24.7613L39.7676 24.3344C40.2805 23.8893 40.7456 23.3904 41.154 22.8459C44.3276 18.6144 43.4701 12.6113 39.2384 9.43768L38.7095 9.86458C38.1963 10.3097 37.7315 10.8086 37.3231 11.3531C34.1495 15.5846 35.0071 21.5876 39.2384 24.7613ZM39.2384 24.7613L39.6654 25.2903C40.1106 25.8035 40.6094 26.2684 41.154 26.6768C45.3854 29.8505 51.3885 28.9927 54.5618 24.7613L54.1352 24.2323C53.6899 23.7191 53.1911 23.2542 52.6465 22.8458C48.4149 19.6722 42.412 20.5298 39.2384 24.7613ZM16.0718 47.9281L16.6008 47.5012C17.114 47.056 17.5789 46.5571 17.9872 46.0126C21.1609 41.7812 20.3033 35.7781 16.0718 32.6045L15.5428 33.0314C15.0297 33.4763 14.5648 33.9754 14.1564 34.5198C10.9828 38.7514 11.8403 44.7545 16.0718 47.9281ZM16.0718 47.9281L16.4988 48.457C16.9439 48.9702 17.4428 49.435 17.9873 49.8437C22.2188 53.017 28.2217 52.1595 31.3953 47.9281L30.9684 47.399C30.5234 46.8858 30.0243 46.4209 29.4797 46.0126C25.2484 42.839 19.2454 43.6965 16.0718 47.9281ZM46.7169 19.9937C46.0429 20.0899 45.3616 20.114 44.6839 20.0658L44.0078 19.9936C43.2599 14.7574 46.8983 9.90623 52.1344 9.15821C53.0327 9.02987 53.9448 9.02987 54.8431 9.15821C55.5914 14.3945 51.9529 19.2456 46.7169 19.9937Z" stroke="black" stroke-width="2"/>
</svg>
